<svg width="33" height="33" viewBox="0 0 33 33" fill="none" xmlns="http://www.w3.org/2000/svg">
<path d="M16.9964 8.51686C16.5853 7.81568 16.1501 7.83985 15.7391 8.51686C13.8531 11.3216 11 15.5287 11 17.6323C11 19.1072 11.6045 20.4612 12.5716 21.4284C13.5388 22.3955 14.8928 23 16.3677 23C17.8426 23 19.1966 22.3955 20.1638 21.4284C21.1309 20.4612 21.7354 19.1072 21.7354 17.6323C21.7354 15.5046 18.8823 11.3216 16.9964 8.51686ZM20.2363 20.026C19.8495 20.6547 19.2933 21.2108 18.6163 21.5976C18.302 21.7669 17.9152 21.6702 17.7459 21.3558C17.5525 21.0173 17.6734 20.6305 17.9877 20.4612C18.4713 20.1953 18.8581 19.8084 19.1483 19.349C19.4384 18.8896 19.6077 18.3577 19.6319 17.8015C19.656 17.4389 19.9462 17.1729 20.3089 17.1971C20.6715 17.2213 20.9375 17.5114 20.9133 17.8741C20.865 18.6478 20.6232 19.3732 20.2363 20.026Z" fill="#F7A800"/>
<path d="M20.2363 20.026C19.8495 20.6547 19.2933 21.2108 18.6163 21.5976C18.302 21.7669 17.9152 21.6702 17.7459 21.3558C17.5525 21.0173 17.6734 20.6305 17.9877 20.4612C18.4713 20.1953 18.8581 19.8084 19.1483 19.349C19.4384 18.8896 19.6077 18.3577 19.6319 17.8015C19.656 17.4389 19.9462 17.1729 20.3089 17.1971C20.6715 17.2213 20.9375 17.5114 20.9133 17.8741C20.865 18.6478 20.6232 19.3732 20.2363 20.026Z" fill="#F7A800"/>
<path d="M5.7983 5.2412C5.60648 4.91398 5.40338 4.92527 5.21156 5.2412C4.33145 6.55008 3 8.51341 3 9.49507C3 10.1834 3.28209 10.8152 3.73343 11.2666C4.18476 11.7179 4.81664 12 5.50493 12C6.19322 12 6.82509 11.7179 7.27643 11.2666C7.72777 10.8152 8.00986 10.1834 8.00986 9.49507C8.00986 8.50212 6.67841 6.55008 5.7983 5.2412ZM7.31028 10.6121C7.12975 10.9055 6.87023 11.165 6.55429 11.3456C6.40761 11.4245 6.22707 11.3794 6.14809 11.2327C6.05782 11.0748 6.11424 10.8942 6.26092 10.8152C6.48659 10.6911 6.66713 10.5106 6.80253 10.2962C6.93793 10.0818 7.01691 9.83357 7.0282 9.57405C7.03948 9.4048 7.17488 9.28068 7.34413 9.29197C7.51339 9.30325 7.6375 9.43865 7.62622 9.6079C7.60365 9.96898 7.49082 10.3075 7.31028 10.6121Z" fill="#F7A800"/>
<path d="M7.31028 10.6121C7.12975 10.9055 6.87023 11.165 6.55429 11.3456C6.40761 11.4245 6.22707 11.3794 6.14809 11.2327C6.05782 11.0748 6.11424 10.8942 6.26092 10.8152C6.48659 10.6911 6.66713 10.5106 6.80253 10.2962C6.93793 10.0818 7.01691 9.83357 7.0282 9.57405C7.03948 9.4048 7.17488 9.28068 7.34413 9.29197C7.51339 9.30325 7.6375 9.43865 7.62622 9.6079C7.60365 9.96898 7.49082 10.3075 7.31028 10.6121Z" fill="#F7A800"/>
<path d="M27.1144 2.20675C26.9499 1.92627 26.7759 1.93594 26.6114 2.20675C25.8571 3.32864 24.7158 5.01149 24.7158 5.85292C24.7158 6.44288 24.9576 6.98449 25.3445 7.37135C25.7313 7.75821 26.2729 8 26.8629 8C27.4529 8 27.9945 7.75821 28.3813 7.37135C28.7682 6.98449 29.01 6.44288 29.01 5.85292C29.01 5.00182 27.8687 3.32864 27.1144 2.20675ZM28.4103 6.8104C28.2556 7.06186 28.0332 7.28431 27.7624 7.43905C27.6366 7.50675 27.4819 7.46806 27.4142 7.34233C27.3368 7.20693 27.3852 7.05219 27.5109 6.98449C27.7043 6.8781 27.8591 6.72336 27.9751 6.5396C28.0912 6.35584 28.1589 6.14306 28.1686 5.92062C28.1782 5.77554 28.2943 5.66916 28.4394 5.67883C28.5844 5.6885 28.6908 5.80456 28.6812 5.94963C28.6618 6.25912 28.5651 6.54927 28.4103 6.8104Z" fill="#F7A800"/>
<path d="M28.4103 6.8104C28.2556 7.06186 28.0332 7.28431 27.7624 7.43905C27.6366 7.50675 27.4819 7.46806 27.4142 7.34233C27.3368 7.20693 27.3852 7.05219 27.5109 6.98449C27.7043 6.8781 27.8591 6.72336 27.9751 6.5396C28.0912 6.35584 28.1589 6.14306 28.1686 5.92062C28.1782 5.77554 28.2943 5.66916 28.4394 5.67883C28.5844 5.6885 28.6908 5.80456 28.6812 5.94963C28.6618 6.25912 28.5651 6.54927 28.4103 6.8104Z" fill="#F7A800"/>
<path d="M26.9571 11.2549C26.7544 10.9091 26.5398 10.921 26.3371 11.2549C25.407 12.6381 24 14.7128 24 15.7502C24 16.4775 24.2981 17.1452 24.775 17.6222C25.252 18.0992 25.9197 18.3972 26.6471 18.3972C27.3744 18.3972 28.0422 18.0992 28.5191 17.6222C28.9961 17.1452 29.2942 16.4775 29.2942 15.7502C29.2942 14.7009 27.8872 12.6381 26.9571 11.2549ZM28.5549 16.9306C28.3641 17.2406 28.0899 17.5149 27.756 17.7057C27.601 17.7891 27.4102 17.7414 27.3267 17.5864C27.2313 17.4195 27.291 17.2287 27.446 17.1452C27.6845 17.0141 27.8752 16.8233 28.0183 16.5968C28.1614 16.3702 28.2449 16.1079 28.2568 15.8336C28.2687 15.6548 28.4118 15.5236 28.5907 15.5355C28.7695 15.5475 28.9007 15.6905 28.8888 15.8694C28.8649 16.251 28.7457 16.6087 28.5549 16.9306Z" fill="#F7A800"/>
<path d="M28.5549 16.9306C28.3641 17.2406 28.0899 17.5149 27.756 17.7057C27.601 17.7891 27.4102 17.7414 27.3267 17.5864C27.2313 17.4195 27.291 17.2287 27.446 17.1452C27.6845 17.0141 27.8752 16.8233 28.0183 16.5968C28.1614 16.3702 28.2449 16.1079 28.2568 15.8336C28.2687 15.6548 28.4118 15.5236 28.5907 15.5355C28.7695 15.5475 28.9007 15.6905 28.8888 15.8694C28.8649 16.251 28.7457 16.6087 28.5549 16.9306Z" fill="#F7A800"/>
<path d="M28.84 24.953C28.7139 24.7379 28.5803 24.7453 28.4542 24.953C27.8755 25.8137 27 27.1046 27 27.7501C27 28.2027 27.1855 28.6182 27.4823 28.9149C27.779 29.2117 28.1945 29.3972 28.6471 29.3972C29.0997 29.3972 29.5151 29.2117 29.8119 28.9149C30.1087 28.6182 30.2942 28.2027 30.2942 27.7501C30.2942 27.0972 29.4187 25.8137 28.84 24.953ZM29.8342 28.4846C29.7155 28.6775 29.5448 28.8482 29.3371 28.9669C29.2406 29.0188 29.1219 28.9891 29.07 28.8927C29.0106 28.7888 29.0477 28.6701 29.1442 28.6182C29.2926 28.5366 29.4113 28.4178 29.5003 28.2769C29.5893 28.1359 29.6413 27.9727 29.6487 27.802C29.6561 27.6908 29.7451 27.6091 29.8564 27.6166C29.9677 27.624 30.0493 27.713 30.0419 27.8243C30.0271 28.0617 29.9529 28.2843 29.8342 28.4846Z" fill="#F7A800"/>
<path d="M29.8342 28.4846C29.7155 28.6775 29.5448 28.8482 29.3371 28.9669C29.2406 29.0188 29.1219 28.9891 29.07 28.8927C29.0106 28.7888 29.0477 28.6701 29.1442 28.6182C29.2926 28.5366 29.4113 28.4178 29.5003 28.2769C29.5893 28.1359 29.6413 27.9727 29.6487 27.802C29.6561 27.6908 29.7451 27.6091 29.8564 27.6166C29.9677 27.624 30.0493 27.713 30.0419 27.8243C30.0271 28.0617 29.9529 28.2843 29.8342 28.4846Z" fill="#F7A800"/>
<path d="M23.84 20.1586C23.7139 19.9434 23.5803 19.9509 23.4542 20.1586C22.8755 21.0192 22 22.3102 22 22.9557C22 23.4082 22.1855 23.8237 22.4823 24.1205C22.779 24.4173 23.1945 24.6028 23.6471 24.6028C24.0997 24.6028 24.5151 24.4173 24.8119 24.1205C25.1087 23.8237 25.2942 23.4082 25.2942 22.9557C25.2942 22.3028 24.4187 21.0192 23.84 20.1586ZM24.8342 23.6902C24.7155 23.8831 24.5448 24.0537 24.3371 24.1724C24.2406 24.2244 24.1219 24.1947 24.07 24.0982C24.0106 23.9944 24.0477 23.8757 24.1442 23.8237C24.2926 23.7421 24.4113 23.6234 24.5003 23.4824C24.5893 23.3415 24.6413 23.1783 24.6487 23.0076C24.6561 22.8963 24.7451 22.8147 24.8564 22.8221C24.9677 22.8295 25.0493 22.9186 25.0419 23.0299C25.0271 23.2673 24.9529 23.4899 24.8342 23.6902Z" fill="#F7A800"/>
<path d="M24.8342 23.6902C24.7155 23.8831 24.5448 24.0537 24.3371 24.1724C24.2406 24.2244 24.1219 24.1947 24.07 24.0982C24.0106 23.9944 24.0477 23.8757 24.1442 23.8237C24.2926 23.7421 24.4113 23.6234 24.5003 23.4824C24.5893 23.3415 24.6413 23.1783 24.6487 23.0076C24.6561 22.8963 24.7451 22.8147 24.8564 22.8221C24.9677 22.8295 25.0493 22.9186 25.0419 23.0299C25.0271 23.2673 24.9529 23.4899 24.8342 23.6902Z" fill="#F7A800"/>
<path d="M9.83998 26.1586C9.71386 25.9434 9.58031 25.9509 9.45418 26.1586C8.87548 27.0192 8 28.3102 8 28.9557C8 29.4082 8.18548 29.8237 8.48225 30.1205C8.77903 30.4173 9.19451 30.6028 9.64708 30.6028C10.0997 30.6028 10.5151 30.4173 10.8119 30.1205C11.1087 29.8237 11.2942 29.4082 11.2942 28.9557C11.2942 28.3028 10.4187 27.0192 9.83998 26.1586ZM10.8342 29.6902C10.7155 29.8831 10.5448 30.0537 10.3371 30.1724C10.2406 30.2244 10.1219 30.1947 10.07 30.0982C10.0106 29.9944 10.0477 29.8757 10.1442 29.8237C10.2926 29.7421 10.4113 29.6234 10.5003 29.4824C10.5893 29.3415 10.6413 29.1783 10.6487 29.0076C10.6561 28.8963 10.7451 28.8147 10.8564 28.8221C10.9677 28.8295 11.0493 28.9186 11.0419 29.0299C11.0271 29.2673 10.9529 29.4899 10.8342 29.6902Z" fill="#F7A800"/>
<path d="M10.8342 29.6902C10.7155 29.8831 10.5448 30.0537 10.3371 30.1724C10.2406 30.2244 10.1219 30.1947 10.07 30.0982C10.0106 29.9944 10.0477 29.8757 10.1442 29.8237C10.2926 29.7421 10.4113 29.6234 10.5003 29.4824C10.5893 29.3415 10.6413 29.1783 10.6487 29.0076C10.6561 28.8963 10.7451 28.8147 10.8564 28.8221C10.9677 28.8295 11.0493 28.9186 11.0419 29.0299C11.0271 29.2673 10.9529 29.4899 10.8342 29.6902Z" fill="#F7A800"/>
<path d="M16.84 25.1586C16.7139 24.9434 16.5803 24.9509 16.4542 25.1586C15.8755 26.0192 15 27.3102 15 27.9557C15 28.4082 15.1855 28.8237 15.4823 29.1205C15.779 29.4173 16.1945 29.6028 16.6471 29.6028C17.0997 29.6028 17.5151 29.4173 17.8119 29.1205C18.1087 28.8237 18.2942 28.4082 18.2942 27.9557C18.2942 27.3028 17.4187 26.0192 16.84 25.1586ZM17.8342 28.6902C17.7155 28.8831 17.5448 29.0537 17.3371 29.1724C17.2406 29.2244 17.1219 29.1947 17.07 29.0982C17.0106 28.9944 17.0477 28.8757 17.1442 28.8237C17.2926 28.7421 17.4113 28.6234 17.5003 28.4824C17.5893 28.3415 17.6413 28.1783 17.6487 28.0076C17.6561 27.8963 17.7451 27.8147 17.8564 27.8221C17.9677 27.8295 18.0493 27.9186 18.0419 28.0299C18.0271 28.2673 17.9529 28.4899 17.8342 28.6902Z" fill="#F7A800"/>
<path d="M17.8342 28.6902C17.7155 28.8831 17.5448 29.0537 17.3371 29.1724C17.2406 29.2244 17.1219 29.1947 17.07 29.0982C17.0106 28.9944 17.0477 28.8757 17.1442 28.8237C17.2926 28.7421 17.4113 28.6234 17.5003 28.4824C17.5893 28.3415 17.6413 28.1783 17.6487 28.0076C17.6561 27.8963 17.7451 27.8147 17.8564 27.8221C17.9677 27.8295 18.0493 27.9186 18.0419 28.0299C18.0271 28.2673 17.9529 28.4899 17.8342 28.6902Z" fill="#F7A800"/>
<path d="M6.35135 16.5081C6.12162 16.1162 5.87838 16.1297 5.64865 16.5081C4.59459 18.0757 3 20.427 3 21.6027C3 22.427 3.33784 23.1838 3.87838 23.7243C4.41892 24.2649 5.17568 24.6027 6 24.6027C6.82432 24.6027 7.58108 24.2649 8.12162 23.7243C8.66216 23.1838 9 22.427 9 21.6027C9 20.4135 7.40541 18.0757 6.35135 16.5081ZM8.16216 22.9405C7.94595 23.2919 7.63513 23.6027 7.25676 23.8189C7.08108 23.9135 6.86486 23.8595 6.77027 23.6838C6.66216 23.4946 6.72973 23.2784 6.90541 23.1838C7.17568 23.0351 7.39189 22.8189 7.55405 22.5622C7.71622 22.3054 7.81081 22.0081 7.82432 21.6973C7.83784 21.4946 8 21.346 8.2027 21.3595C8.40541 21.373 8.55405 21.5351 8.54054 21.7378C8.51351 22.1703 8.37838 22.5757 8.16216 22.9405Z" fill="#F7A800"/>
<path d="M8.16216 22.9405C7.94595 23.2919 7.63513 23.6027 7.25676 23.8189C7.08108 23.9135 6.86486 23.8595 6.77027 23.6838C6.66216 23.4946 6.72973 23.2784 6.90541 23.1838C7.17568 23.0351 7.39189 22.8189 7.55405 22.5622C7.71622 22.3054 7.81081 22.0081 7.82432 21.6973C7.83784 21.4946 8 21.346 8.2027 21.3595C8.40541 21.373 8.55405 21.5351 8.54054 21.7378C8.51351 22.1703 8.37838 22.5757 8.16216 22.9405Z" fill="#F7A800"/>
<path d="M10.9988 2.17229C10.8618 1.93856 10.7167 1.94662 10.5797 2.17229C9.95103 3.1072 9 4.50958 9 5.21076C9 5.7024 9.20149 6.15374 9.52388 6.47612C9.84626 6.79851 10.2976 7 10.7892 7C11.2809 7 11.7322 6.79851 12.0546 6.47612C12.377 6.15374 12.5785 5.7024 12.5785 5.21076C12.5785 4.50152 11.6274 3.1072 10.9988 2.17229ZM12.0788 6.00867C11.9498 6.21822 11.7644 6.40359 11.5388 6.53254C11.434 6.58896 11.3051 6.55672 11.2486 6.45195C11.1842 6.33911 11.2245 6.21016 11.3292 6.15374C11.4904 6.06508 11.6194 5.93613 11.7161 5.783C11.8128 5.62986 11.8692 5.45255 11.8773 5.26718C11.8853 5.14629 11.9821 5.05763 12.103 5.06569C12.2238 5.07375 12.3125 5.17047 12.3044 5.29136C12.2883 5.54927 12.2077 5.79106 12.0788 6.00867Z" fill="#F7A800"/>
<path d="M12.0788 6.00867C11.9498 6.21822 11.7644 6.40359 11.5388 6.53254C11.434 6.58896 11.3051 6.55672 11.2486 6.45195C11.1842 6.33911 11.2245 6.21016 11.3292 6.15374C11.4904 6.06508 11.6194 5.93613 11.7161 5.783C11.8128 5.62986 11.8692 5.45255 11.8773 5.26718C11.8853 5.14629 11.9821 5.05763 12.103 5.06569C12.2238 5.07375 12.3125 5.17047 12.3044 5.29136C12.2883 5.54927 12.2077 5.79106 12.0788 6.00867Z" fill="#F7A800"/>
<path d="M19.9988 3.17229C19.8618 2.93856 19.7167 2.94662 19.5797 3.17229C18.951 4.1072 18 5.50958 18 6.21076C18 6.7024 18.2015 7.15374 18.5239 7.47612C18.8463 7.79851 19.2976 8 19.7892 8C20.2809 8 20.7322 7.79851 21.0546 7.47612C21.377 7.15374 21.5785 6.7024 21.5785 6.21076C21.5785 5.50152 20.6274 4.1072 19.9988 3.17229ZM21.0788 7.00867C20.9498 7.21822 20.7644 7.40359 20.5388 7.53254C20.434 7.58896 20.3051 7.55672 20.2486 7.45195C20.1842 7.33911 20.2245 7.21016 20.3292 7.15374C20.4904 7.06508 20.6194 6.93613 20.7161 6.783C20.8128 6.62986 20.8692 6.45255 20.8773 6.26718C20.8853 6.14629 20.9821 6.05763 21.103 6.06569C21.2238 6.07375 21.3125 6.17047 21.3044 6.29136C21.2883 6.54927 21.2077 6.79106 21.0788 7.00867Z" fill="#F7A800"/>
<path d="M21.0788 7.00867C20.9498 7.21822 20.7644 7.40359 20.5388 7.53254C20.434 7.58896 20.3051 7.55672 20.2486 7.45195C20.1842 7.33911 20.2245 7.21016 20.3292 7.15374C20.4904 7.06508 20.6194 6.93613 20.7161 6.783C20.8128 6.62986 20.8692 6.45255 20.8773 6.26718C20.8853 6.14629 20.9821 6.05763 21.103 6.06569C21.2238 6.07375 21.3125 6.17047 21.3044 6.29136C21.2883 6.54927 21.2077 6.79106 21.0788 7.00867Z" fill="#F7A800"/>
<path d="M9.19927 12.1034C9.11706 11.9631 9.03002 11.968 8.94781 12.1034C8.57062 12.6643 8 13.5057 8 13.9265C8 14.2214 8.12089 14.4922 8.31433 14.6857C8.50776 14.8791 8.77856 15 9.07354 15C9.36852 15 9.63933 14.8791 9.83276 14.6857C10.0262 14.4922 10.1471 14.2214 10.1471 13.9265C10.1471 13.5009 9.57646 12.6643 9.19927 12.1034ZM9.84726 14.4052C9.76989 14.5309 9.65867 14.6422 9.52327 14.7195C9.4604 14.7534 9.38303 14.734 9.34918 14.6712C9.31049 14.6035 9.33467 14.5261 9.39754 14.4922C9.49425 14.4391 9.57163 14.3617 9.62965 14.2698C9.68768 14.1779 9.72153 14.0715 9.72637 13.9603C9.73121 13.8878 9.78924 13.8346 9.86177 13.8394C9.93431 13.8443 9.9875 13.9023 9.98267 13.9748C9.97299 14.1296 9.92464 14.2746 9.84726 14.4052Z" fill="#F7A800"/>
<path d="M9.84726 14.4052C9.76989 14.5309 9.65867 14.6422 9.52327 14.7195C9.4604 14.7534 9.38303 14.734 9.34918 14.6712C9.31049 14.6035 9.33467 14.5261 9.39754 14.4922C9.49425 14.4391 9.57163 14.3617 9.62965 14.2698C9.68768 14.1779 9.72153 14.0715 9.72637 13.9603C9.73121 13.8878 9.78924 13.8346 9.86177 13.8394C9.93431 13.8443 9.9875 13.9023 9.98267 13.9748C9.97299 14.1296 9.92464 14.2746 9.84726 14.4052Z" fill="#F7A800"/>
</svg>
