<svg width="33" height="33" viewBox="0 0 33 33" fill="none" xmlns="http://www.w3.org/2000/svg">
<path d="M17.8829 1.1371C16.9786 -0.405512 16.0211 -0.352319 15.1168 1.1371C10.9677 7.30753 4.69092 16.5632 4.69092 21.191C4.69092 24.4358 6.02075 27.4146 8.14849 29.5424C10.2762 31.6701 13.2551 33 16.4999 33C19.7447 33 22.7235 31.6701 24.8512 29.5424C26.979 27.4146 28.3088 24.4358 28.3088 21.191C28.3088 16.51 22.032 7.30753 17.8829 1.1371ZM25.0108 26.4572C24.1597 27.8402 22.9363 29.0636 21.4468 29.9147C20.7553 30.2871 19.9042 30.0743 19.5319 29.3828C19.1063 28.6381 19.3723 27.787 20.0638 27.4146C21.1277 26.8295 21.9788 25.9784 22.6171 24.9678C23.2554 23.9571 23.6278 22.7868 23.681 21.5634C23.7342 20.7655 24.3725 20.1803 25.1704 20.2335C25.9683 20.2867 26.5534 20.925 26.5002 21.723C26.3938 23.4251 25.8619 25.0209 25.0108 26.4572Z" fill="#F7A800"/>
</svg>
