<svg width="70" height="70" viewBox="0 0 70 70" fill="none" xmlns="http://www.w3.org/2000/svg">
<path d="M64.8277 18.5938C64.5575 18.5938 64.2873 18.62 64.0281 18.6736L43.75 22.7281V18.422C43.75 16.707 42.3555 15.3125 40.6405 15.3125C40.4644 15.3125 40.2883 15.3278 40.1155 15.3573L35 16.2334V12.3244C36.1944 10.1183 38.4617 8.75 40.985 8.75H41.5625V6.5625H40.985C39.013 6.5625 37.1678 7.20891 35.653 8.32562C36.4481 6.18734 37.9367 4.32688 39.9383 3.12484L38.8128 1.24906C35.1116 3.47047 32.8125 7.53156 32.8125 11.8464V16.6086L32.5281 16.6578L30.8197 5.55844C30.6491 4.445 30.1372 3.43438 29.3387 2.63594C28.3434 1.64063 27.0211 1.09375 25.6156 1.09375C24.4311 1.09375 23.2444 1.37375 22.1834 1.90422L21.0427 2.47406C20.1491 2.92031 19.1067 2.96406 18.1792 2.59328C15.6898 1.59797 13.0692 1.09375 10.3906 1.09375C5.26422 1.09375 1.09375 5.26422 1.09375 10.3906C1.09375 15.517 5.26422 19.6875 10.3906 19.6875C13.1283 19.6875 15.7456 18.8366 17.9583 17.2266L23.3548 13.3011C25.1562 11.9919 27.2453 11.2022 29.4427 10.9933L30.3713 17.0275L19.262 18.9317C8.73469 20.7364 1.09375 29.7992 1.09375 40.4808C1.09375 52.5361 10.9014 62.3438 22.9567 62.3438C26.4841 62.3438 29.8605 61.1483 32.6112 59.0625H36.5247C37.4019 59.0625 38.2692 58.9728 39.1202 58.8142L39.7983 60.1683C40.1067 60.7873 40.0608 61.53 39.678 62.1053C38.7636 63.4747 38.2812 65.0705 38.2812 66.7188C38.2812 67.9252 39.2623 68.9062 40.4688 68.9062H51.4062C52.6127 68.9062 53.5938 67.9252 53.5938 66.7188V59.1303C53.5938 53.7983 52.3206 48.5067 49.9297 43.7434C50.2523 43.5662 50.5816 43.4011 50.8998 43.2152L51.0223 43.1441C56.7875 39.7808 61.7892 35.07 65.4894 29.5192L67.9514 25.8267C68.5759 24.8894 68.9062 23.7989 68.9062 22.6723C68.9062 20.4236 67.0764 18.5938 64.8277 18.5938ZM22.0686 11.5325L16.672 15.458C14.8345 16.7934 12.6623 17.5 10.3906 17.5C6.47062 17.5 3.28125 14.3106 3.28125 10.3906C3.28125 6.47062 6.47062 3.28125 10.3906 3.28125C12.7892 3.28125 15.1375 3.73297 17.3677 4.62547C18.8737 5.22813 20.5702 5.15703 22.0216 4.43187L23.1623 3.86203C24.6553 3.115 26.6098 3.00344 27.7922 4.18359C28.2581 4.64953 28.5567 5.24016 28.6573 5.89203L29.1091 8.82875C26.5672 9.09234 24.1544 10.0155 22.0686 11.5325ZM51.4062 59.1303V66.7188H40.4688C40.4688 65.5036 40.8242 64.3278 41.498 63.3183C42.315 62.0922 42.4145 60.5106 41.755 59.1905L41.2759 58.2323C42.3533 57.8463 43.3891 57.3366 44.3559 56.6912L43.143 54.8713C41.1764 56.1827 38.8894 56.875 36.5258 56.875H34.977C35.3237 56.4802 35.6639 56.0777 35.9723 55.6456L36.9841 54.2292L35.2045 52.9583L34.1928 54.3736C31.605 57.995 27.4061 60.1562 22.9567 60.1562C12.1078 60.1562 3.28125 51.3297 3.28125 40.4808C3.28125 30.8678 10.1577 22.7117 19.6317 21.0886L40.4841 17.5131C41.0342 17.4191 41.5625 17.862 41.5625 18.422V23.1656L23.3111 26.8155C18.0425 27.8698 14.2188 32.5347 14.2188 37.9072C14.2188 44.1448 19.2937 49.2188 25.5303 49.2188H28.6912C32.9842 49.2188 37.2455 48.5931 41.358 47.3594C43.6362 46.6758 45.8533 45.7931 47.9905 44.7519C50.2184 49.2045 51.4062 54.1494 51.4062 59.1303ZM66.1314 24.6116L63.6694 28.3052C60.153 33.5803 55.3984 38.0581 49.9231 41.2519L49.8006 41.323C46.947 42.9877 43.8955 44.3133 40.7302 45.2627C36.82 46.4373 32.7698 47.0312 28.6902 47.0312H25.5292C25.4034 47.0312 25.2798 47.017 25.1552 47.0127V45.1041C25.1552 44.4828 25.2175 43.8725 25.3258 43.2742C27.802 42.1083 30.4237 41.3066 33.1362 40.9073L33.6656 41.2606C34.5023 41.8152 35 42.747 35 43.75H37.1875C37.1875 42.3806 36.645 41.0944 35.7098 40.1373C36.9097 39.5609 37.9641 38.7034 38.7866 37.6075C39.8716 36.1605 40.4688 34.3689 40.4688 32.562V31.7188H38.2812V32.562C38.2812 33.8997 37.8394 35.2253 37.0366 36.295C36.0391 37.625 34.5844 38.4858 32.9394 38.7209C30.6512 39.048 28.4233 39.6419 26.2795 40.4764C26.752 39.562 27.3634 38.7133 28.1127 37.9641C29.6855 36.3913 30.8033 34.4181 31.3436 32.258L31.6859 30.8897L29.5652 30.3603L29.2228 31.7275C28.8761 33.1122 28.2341 34.3973 27.3569 35.5119C26.682 34.417 25.7305 33.5169 24.5514 32.9273L23.5725 34.8841C24.5875 35.3905 25.3531 36.2327 25.8037 37.2575C23.9706 39.4603 22.9688 42.2034 22.9688 45.103V46.6583C19.1822 45.5481 16.4062 42.0481 16.4062 37.9072C16.4062 33.5737 19.4906 29.8113 23.7409 28.9603L64.4591 20.8173C64.5805 20.7933 64.703 20.7812 64.8277 20.7812C65.8711 20.7812 66.7188 21.63 66.7188 22.6723C66.7188 23.3658 66.5153 24.0363 66.1314 24.6116Z" fill="#00A9E0"/>
<path d="M56.6606 25.1782C52.8959 25.9307 49.3784 27.6654 46.4898 30.1942L41.9365 34.1776L43.3759 35.8237L47.9292 31.8403C48.5045 31.3371 49.1104 30.8756 49.7371 30.4446C50.4984 32.5042 52.4496 33.9063 54.6875 33.9063V31.7188C53.2579 31.7188 52.0187 30.7509 51.6709 29.3629L51.6501 29.282C53.3531 28.3731 55.1829 27.7037 57.0893 27.322L56.6606 25.1782Z" fill="#00A9E0"/>
<path d="M62.7178 24.2936C61.5891 24.8579 60.3247 25.1565 59.0625 25.1565V27.344C60.6627 27.344 62.265 26.9656 63.6956 26.2503L63.9264 26.1354L62.9475 24.1787L62.7178 24.2936Z" fill="#00A9E0"/>
<path d="M43.75 27.3438H45.9375V29.5312H43.75V27.3438Z" fill="#00A9E0"/>
<path d="M46.2495 36.8682L47.7963 35.3214L49.9835 37.5085L48.4367 39.0553L46.2495 36.8682Z" fill="#00A9E0"/>
<path d="M7.65625 40.4809C7.65625 35.5962 9.88859 31.1272 13.7802 28.2211L12.4709 26.4678C8.08719 29.7425 5.46875 34.9804 5.46875 40.4809C5.46875 46.0273 8.01938 51.1253 12.4677 54.4689L13.7812 52.72C9.88859 49.7942 7.65625 45.3328 7.65625 40.4809Z" fill="#00A9E0"/>
</svg>
