<svg width="70" height="54" viewBox="0 0 70 54" fill="none" xmlns="http://www.w3.org/2000/svg">
<path d="M5.31445 12.3999H16.1286C16.6949 12.3999 17.154 11.9409 17.154 11.3745C17.154 10.8081 16.6949 10.3491 16.1286 10.3491H5.31445C4.74816 10.3491 4.28906 10.8081 4.28906 11.3745C4.28906 11.9409 4.74803 12.3999 5.31445 12.3999Z" fill="#00A9E0"/>
<path d="M15.7578 17.3364H11.4858C10.9196 17.3364 10.4604 17.7954 10.4604 18.3618C10.4604 18.9282 10.9196 19.3872 11.4858 19.3872H15.7578C16.324 19.3872 16.7831 18.9282 16.7831 18.3618C16.7831 17.7954 16.324 17.3364 15.7578 17.3364Z" fill="#00A9E0"/>
<path d="M1.02539 24.4468H11.486C12.0523 24.4468 12.5114 23.9878 12.5114 23.4214C12.5114 22.855 12.0523 22.396 11.486 22.396H1.02539C0.459102 22.396 0 22.855 0 23.4214C0 23.9878 0.459102 24.4468 1.02539 24.4468Z" fill="#00A9E0"/>
<path d="M17.154 42.6255C17.154 42.0591 16.6949 41.6001 16.1286 41.6001H5.31445C4.74816 41.6001 4.28906 42.0591 4.28906 42.6255C4.28906 43.1919 4.74816 43.6509 5.31445 43.6509H16.1286C16.6949 43.6509 17.154 43.1919 17.154 42.6255Z" fill="#00A9E0"/>
<path d="M15.7578 34.6128H11.4858C10.9196 34.6128 10.4604 35.0718 10.4604 35.6382C10.4604 36.2046 10.9196 36.6636 11.4858 36.6636H15.7578C16.324 36.6636 16.7831 36.2046 16.7831 35.6382C16.7831 35.0718 16.324 34.6128 15.7578 34.6128Z" fill="#00A9E0"/>
<path d="M12.5114 30.5781C12.5114 30.0117 12.0523 29.5527 11.486 29.5527H1.02539C0.459102 29.5527 0 30.0117 0 30.5781C0 31.1446 0.459102 31.6035 1.02539 31.6035H11.486C12.0523 31.6035 12.5114 31.1446 12.5114 30.5781Z" fill="#00A9E0"/>
<path d="M43.6855 14.6721C44.252 14.6721 44.7109 14.2131 44.7109 13.6467V12.0815C44.7109 11.5151 44.252 11.0562 43.6855 11.0562C43.1191 11.0562 42.6602 11.5151 42.6602 12.0815V13.6467C42.6602 14.2131 43.1191 14.6721 43.6855 14.6721Z" fill="#00A9E0"/>
<path d="M54.9598 15.726C54.5592 15.3257 53.9101 15.3257 53.5096 15.726L52.4029 16.8328C52.0024 17.2333 52.0024 17.8825 52.4029 18.2829C52.8036 18.6834 53.4526 18.6832 53.853 18.2829L54.9598 17.1762C55.3601 16.7757 55.3601 16.1266 54.9598 15.726Z" fill="#00A9E0"/>
<path d="M57.0391 25.9746C56.4726 25.9746 56.0137 26.4336 56.0137 27C56.0137 27.5664 56.4726 28.0254 57.0391 28.0254H58.6041C59.1705 28.0254 59.6295 27.5664 59.6295 27C59.6295 26.4336 59.1705 25.9746 58.6041 25.9746H57.0391Z" fill="#00A9E0"/>
<path d="M53.8531 35.7172C53.4525 35.3169 52.8033 35.3169 52.4029 35.7172C52.0024 36.1178 52.0024 36.767 52.4029 37.1674L53.5096 38.2741C53.9103 38.6746 54.5593 38.6745 54.9598 38.2741C55.3602 37.8736 55.3602 37.2244 54.9598 36.824L53.8531 35.7172Z" fill="#00A9E0"/>
<path d="M42.6602 40.353V41.9181C42.6602 42.4845 43.1191 42.9434 43.6855 42.9434C44.252 42.9434 44.7109 42.4845 44.7109 41.9181V40.353C44.7109 39.7866 44.252 39.3276 43.6855 39.3276C43.1191 39.3276 42.6602 39.7867 42.6602 40.353Z" fill="#00A9E0"/>
<path d="M33.5184 35.7172L32.4117 36.824C32.0112 37.2246 32.0112 37.8737 32.4117 38.2741C32.8123 38.6746 33.4614 38.6745 33.8617 38.2741L34.9684 37.1674C35.3689 36.7668 35.3689 36.1177 34.9684 35.7172C34.5681 35.3169 33.9189 35.3169 33.5184 35.7172Z" fill="#00A9E0"/>
<path d="M28.7671 25.9746C28.2008 25.9746 27.7417 26.4336 27.7417 27C27.7417 27.5664 28.2008 28.0254 28.7671 28.0254H30.3322C30.8985 28.0254 31.3576 27.5664 31.3576 27C31.3576 26.4336 30.8985 25.9746 30.3322 25.9746H28.7671Z" fill="#00A9E0"/>
<path d="M34.9684 16.8328L33.8617 15.726C33.4613 15.3257 32.812 15.3257 32.4117 15.726C32.0112 16.1266 32.0112 16.7757 32.4117 17.1762L33.5184 18.2829C33.919 18.6834 34.5681 18.6832 34.9684 18.2829C35.3689 17.8825 35.3689 17.2333 34.9684 16.8328Z" fill="#00A9E0"/>
<path d="M49.1994 26.9998C49.1994 26.4333 48.7405 25.9744 48.174 25.9744H44.7109V18.3613C44.7109 17.7949 44.252 17.3359 43.6855 17.3359C43.1191 17.3359 42.6602 17.7949 42.6602 18.3613V26.9998C42.6602 27.5662 43.1191 28.0251 43.6855 28.0251H48.174C48.7403 28.0251 49.1994 27.5662 49.1994 26.9998Z" fill="#00A9E0"/>
<path d="M63.1287 26.8307C63.694 26.7964 64.1244 26.3104 64.0901 25.7452C63.4378 14.985 54.4751 6.55615 43.6855 6.55615C32.4128 6.55615 23.2417 15.7272 23.2417 27.0001C23.2417 38.2729 32.4128 47.4439 43.6855 47.4439C53.7848 47.4439 62.4023 40.0444 63.9015 30.0592C63.9855 29.4992 63.5997 28.9771 63.0396 28.893C62.4809 28.8092 61.9574 29.1946 61.8734 29.7549C60.5267 38.7255 52.7807 45.3933 43.6855 45.3933C33.5436 45.3933 25.2925 37.1422 25.2925 27.0003C25.2925 16.8583 33.5436 8.60707 43.6855 8.60707C53.3927 8.60707 61.4562 16.1896 62.043 25.8696C62.0772 26.4345 62.5628 26.8635 63.1287 26.8307Z" fill="#00A9E0"/>
<path d="M43.6856 0.685547C40.0788 0.685547 36.5451 1.43381 33.2925 2.83312H15.2007C14.6344 2.83312 14.1753 3.29209 14.1753 3.85852C14.1753 4.42494 14.6344 4.88391 15.2007 4.88391H29.4349C27.5103 6.12258 25.7386 7.61664 24.1764 9.34148C23.7963 9.76107 23.8283 10.4095 24.248 10.7897C24.6679 11.17 25.3161 11.1378 25.6964 10.7181C30.2905 5.64557 36.8474 2.73633 43.6856 2.73633C57.0646 2.73633 67.9494 13.6209 67.9494 26.9999C67.9494 40.3788 57.0648 51.2635 43.6856 51.2635C30.3066 51.2635 19.422 40.379 19.422 26.9999C19.422 22.3149 20.7604 17.7676 23.2921 13.8495C23.5995 13.3739 23.463 12.7392 22.9874 12.4319C22.5117 12.1247 21.8771 12.2608 21.5696 12.7366C18.8229 16.9869 17.3712 21.9191 17.3712 26.9999C17.3712 36.2648 22.1845 44.4258 29.4414 49.116H15.2008C14.6345 49.116 14.1754 49.5749 14.1754 50.1414C14.1754 50.7078 14.6345 51.1668 15.2008 51.1668H33.2785C36.4722 52.5475 39.9909 53.3143 43.6858 53.3143C58.1954 53.3143 70.0001 41.5098 70.0001 26.9999C70.0001 12.4901 58.1954 0.685547 43.6856 0.685547Z" fill="#00A9E0"/>
</svg>
