<svg width="70" height="70" viewBox="0 0 70 70" fill="none" xmlns="http://www.w3.org/2000/svg">
<g clip-path="url(#clip0)">
<path d="M45.1176 16.9704C45.8369 17.3237 46.5304 17.7209 47.1985 18.1545C46.6761 19.0936 46.3954 20.1588 46.3954 21.2425C46.3954 24.7425 49.2429 27.5899 52.7429 27.5899C53.4443 27.5899 54.1401 27.4707 54.7998 27.245C55.8224 29.6857 56.3557 32.3165 56.3557 35C56.3557 36.3434 56.2218 37.688 55.9575 38.9966C55.8457 39.55 56.2038 40.0892 56.7572 40.2009C56.8254 40.2148 56.8935 40.2214 56.9607 40.2214C57.4372 40.2214 57.8637 39.8863 57.9617 39.4011C58.2528 37.9597 58.4004 36.4789 58.4004 34.9999C58.4004 31.7013 57.6682 28.475 56.2719 25.5304C56.2554 25.4885 56.2372 25.447 56.2148 25.4065C56.2129 25.403 56.2106 25.4 56.2085 25.3965C55.8367 24.6258 55.4215 23.8738 54.959 23.1465C52.7684 19.702 49.6771 16.9316 46.0194 15.1352C45.5127 14.8863 44.9001 15.0952 44.6511 15.6021C44.4018 16.109 44.6109 16.7215 45.1176 16.9704ZM53.2334 24.244C53.4707 24.6171 53.6936 24.9976 53.9046 25.3836C53.5277 25.4891 53.1367 25.5454 52.7427 25.5454C50.3701 25.5454 48.4398 23.6152 48.4398 21.2426C48.4398 20.5796 48.5871 19.9443 48.8694 19.3654C50.5709 20.7365 52.0483 22.3803 53.2334 24.244Z" fill="#00A9E0"/>
<path d="M10.3757 41.3044C9.83255 41.4585 9.51728 42.0238 9.67144 42.5669C10.4037 45.1465 11.5098 47.6045 12.9591 49.8725C13.1541 50.1779 13.4843 50.3446 13.8215 50.3446C14.0098 50.3446 14.2005 50.2925 14.3709 50.1836C14.8468 49.8796 14.9859 49.2475 14.682 48.7718C13.3401 46.6717 12.3161 44.3963 11.6383 42.0088C11.484 41.4653 10.9183 41.1499 10.3757 41.3044Z" fill="#00A9E0"/>
<path d="M8.62354 35.0002C8.62354 35.6687 8.64875 36.3535 8.69837 37.0351C8.73749 37.573 9.18606 37.9832 9.71683 37.9832C9.74177 37.9832 9.76685 37.9824 9.79207 37.9805C10.3551 37.9395 10.7784 37.4497 10.7375 36.8868C10.6915 36.2541 10.6681 35.6195 10.6681 35.0002C10.6681 26.144 15.1496 18.0356 22.6563 13.3099C23.134 13.0092 23.2775 12.378 22.9769 11.9003C22.676 11.4225 22.045 11.2787 21.5671 11.5797C17.6815 14.0257 14.4357 17.4298 12.1804 21.4244C9.8534 25.5456 8.62354 30.24 8.62354 35.0002Z" fill="#00A9E0"/>
<path d="M2.31769 36.0226H5.27902C5.84359 36.0226 6.3013 35.565 6.3013 35.0003C6.3013 34.4356 5.84359 33.978 5.27902 33.978H2.31769C1.75312 33.978 1.29541 34.4356 1.29541 35.0003C1.29541 35.5649 1.75312 36.0226 2.31769 36.0226Z" fill="#00A9E0"/>
<path d="M23.0629 7.96105C23.2328 8.34093 23.6058 8.56611 23.9967 8.56611C24.1361 8.56611 24.278 8.53735 24.4136 8.47669C24.929 8.2462 25.1599 7.64142 24.9293 7.12619L23.3434 3.58161C23.1129 3.06625 22.5084 2.83535 21.9927 3.06598C21.4774 3.29647 21.2465 3.90125 21.4771 4.41648L23.0629 7.96105Z" fill="#00A9E0"/>
<path d="M9.11853 22.3016C9.35761 21.7901 9.13693 21.1816 8.62538 20.9426L5.94661 19.6902C5.43533 19.4511 4.82674 19.6718 4.58766 20.1832C4.34858 20.6948 4.56926 21.3032 5.08067 21.5423L7.75945 22.7946C7.89957 22.8601 8.04678 22.8912 8.1918 22.8912C8.57645 22.8912 8.94488 22.6729 9.11853 22.3016Z" fill="#00A9E0"/>
<path d="M13.73 13.7037C13.9299 13.9053 14.1928 14.0063 14.456 14.0063C14.7161 14.0063 14.9765 13.9076 15.1757 13.71C15.5767 13.3125 15.5796 12.6654 15.1821 12.2644L3.32494 0.302621C2.92734 -0.0983845 2.28003 -0.101247 1.8793 0.296351C1.47829 0.693813 1.47543 1.34098 1.87289 1.74199L13.73 13.7037Z" fill="#00A9E0"/>
<path d="M24.4136 61.5235C23.8979 61.2929 23.2934 61.5238 23.0629 62.0391L21.4771 65.5837C21.2466 66.0989 21.4773 66.7037 21.9927 66.9342C22.1283 66.9949 22.2701 67.0236 22.4096 67.0236C22.8004 67.0236 23.1735 66.7983 23.3435 66.4186L24.9294 62.874C25.1598 62.3588 24.9289 61.754 24.4136 61.5235Z" fill="#00A9E0"/>
<path d="M4.58821 49.8168C4.76186 50.1882 5.13029 50.4063 5.51494 50.4063C5.65983 50.4063 5.80731 50.3753 5.94715 50.3098L8.62593 49.0575C9.13734 48.8184 9.35815 48.2099 9.11908 47.6984C8.88 47.1871 8.27168 46.9662 7.75999 47.2054L5.08122 48.4577C4.56981 48.6968 4.34899 49.3053 4.58821 49.8168Z" fill="#00A9E0"/>
<path d="M13.7301 56.2963L1.87289 68.2579C1.47543 68.6589 1.47829 69.3061 1.8793 69.7035C2.07857 69.9012 2.33878 69.9999 2.59898 69.9999C2.86205 69.9999 3.12511 69.899 3.32507 69.6973L15.1823 57.7356C15.5797 57.3346 15.5769 56.6875 15.1759 56.29C14.775 55.8924 14.1278 55.8953 13.7301 56.2963Z" fill="#00A9E0"/>
<path d="M56.2332 9.45425C56.8064 9.84121 57.2937 10.3206 57.6817 10.879C58.0228 11.37 58.5837 11.6669 59.1822 11.6738H59.2033C59.7987 11.6738 60.3619 11.3876 60.7134 10.9055C61.0876 10.3922 61.5652 9.93608 62.1734 9.51095C62.6731 9.1616 62.971 8.59008 62.9705 7.98162C62.9699 7.37262 62.6705 6.80082 62.1694 6.45202C61.5829 6.04366 61.0868 5.55133 60.6947 4.98867C60.3533 4.49852 59.7938 4.19865 59.1983 4.18638C58.5965 4.17507 58.0469 4.44059 57.6841 4.91806C57.2794 5.4506 56.7678 5.95029 56.1639 6.40336C55.677 6.76866 55.3952 7.34808 55.4102 7.95327C55.425 8.55505 55.7327 9.11608 56.2332 9.45425ZM59.1574 6.35225C59.6149 6.96739 60.1648 7.51424 60.7964 7.98285C60.1754 8.44165 59.6434 8.95183 59.2104 9.50386C58.7517 8.88954 58.203 8.35073 57.5747 7.89766C58.1803 7.42346 58.711 6.90523 59.1574 6.35225Z" fill="#00A9E0"/>
<path d="M67.6821 26.4367H65.9484V24.7029C65.9484 24.1382 65.4907 23.6807 64.9262 23.6807C64.3616 23.6807 63.9039 24.1382 63.9039 24.7029V26.4367H62.1702C61.6057 26.4367 61.1479 26.8943 61.1479 27.459C61.1479 28.0237 61.6057 28.4813 62.1702 28.4813H63.9039V30.2149C63.9039 30.7796 64.3616 31.2372 64.9262 31.2372C65.4907 31.2372 65.9484 30.7796 65.9484 30.2149V28.4813H67.6821C68.2467 28.4813 68.7044 28.0237 68.7044 27.459C68.7044 26.8943 68.2467 26.4367 67.6821 26.4367Z" fill="#00A9E0"/>
<path d="M63.7464 54.5373H62.2506L61.7884 53.1147C61.5352 52.3352 60.8144 51.8115 59.9949 51.8115C59.1755 51.8115 58.4547 52.3352 58.2015 53.1147L57.7393 54.5373H56.2435C55.424 54.5373 54.7032 55.061 54.45 55.8404C54.1967 56.6198 54.4721 57.467 55.1349 57.9487L56.345 58.828L55.8828 60.2506C55.6295 61.03 55.9049 61.8773 56.5679 62.3588C57.2308 62.8407 58.1216 62.8405 58.7847 62.359L59.9948 61.4798L61.2049 62.359C61.5364 62.6 61.9247 62.7202 62.3132 62.7202C62.7017 62.7202 63.0903 62.5997 63.4218 62.3588C64.0847 61.8771 64.3599 61.0299 64.1067 60.2506L63.6445 58.828L64.8546 57.9487C65.5176 57.467 65.7928 56.6196 65.5395 55.8402C65.2867 55.061 64.5659 54.5373 63.7464 54.5373ZM62.35 57.2415C61.6867 57.723 61.4114 58.5703 61.6647 59.3499L62.0114 60.4175L61.1034 59.7578C60.4404 59.2761 59.5494 59.2758 58.8864 59.7578L57.9783 60.4176L58.3252 59.3499C58.5785 58.5704 58.3031 57.7232 57.6403 57.2417L56.7321 56.5819H57.8546C58.674 56.5819 59.3947 56.0583 59.648 55.2788L59.9949 54.2113L60.3418 55.2788C60.5949 56.0582 61.3157 56.5819 62.1352 56.5819H63.2576L62.35 57.2415Z" fill="#00A9E0"/>
<path d="M47.2909 54.1849C51.3459 51.8578 54.6485 48.2583 56.5871 43.7807C56.8114 43.2626 56.5732 42.6607 56.0551 42.4365C55.5368 42.2123 54.9351 42.4504 54.7107 42.9685C54.1669 44.2246 53.5022 45.4029 52.7384 46.4964C51.8287 45.7025 50.657 45.2507 49.4148 45.2507C46.6224 45.2507 44.3507 47.5225 44.3507 50.3148C44.3507 51.2796 44.6286 52.215 45.1346 53.0168C42.7276 54.1996 40.071 54.9065 37.3021 55.0469V49.6381C37.5525 49.6878 37.8088 49.7162 38.0701 49.7162C40.2268 49.7162 41.9813 47.9616 41.9813 45.805C41.9813 43.6484 40.2267 41.8937 38.0701 41.8937C37.8088 41.8937 37.5525 41.9221 37.3021 41.9718V29.2635C37.6805 29.3519 38.0694 29.3993 38.4628 29.3993C41.2793 29.3993 43.5707 27.1079 43.5707 24.2913C43.5707 21.4747 41.2793 19.1833 38.4628 19.1833C38.0694 19.1833 37.6806 19.2308 37.3021 19.319V14.9523C38.63 15.0194 39.9467 15.2146 41.2285 15.5395C41.776 15.6779 42.332 15.3469 42.4706 14.7997C42.6094 14.2524 42.2782 13.6963 41.7309 13.5577C40.2851 13.1912 38.7996 12.9744 37.3021 12.9059V1.0379C37.3021 0.473197 36.8444 0.015625 36.2799 0.015625C35.7153 0.015625 35.2576 0.473197 35.2576 1.0379V7.36444C33.4008 7.43273 31.5542 7.68448 29.7546 8.11984C29.2058 8.25273 28.8686 8.80503 29.0014 9.35393C29.1146 9.822 29.533 10.136 29.9942 10.136C30.0737 10.136 30.1546 10.1266 30.2355 10.1071C31.8779 9.70982 33.5629 9.4781 35.2577 9.41077V12.9044C23.5333 13.4405 14.1597 23.1457 14.1597 35.0002C14.1597 35.5715 14.182 36.1518 14.2262 36.7243C14.2676 37.2606 14.7154 37.6682 15.2444 37.668C15.2707 37.668 15.2974 37.6671 15.324 37.665C15.8869 37.6217 16.3081 37.1302 16.2647 36.5672C16.2247 36.0467 16.2042 35.5193 16.2042 35.0002C16.2042 24.2731 24.6611 15.4843 35.2577 14.9502V55.0496C31.2107 54.8491 27.3884 53.4584 24.1473 50.9954C20.7467 48.4114 18.2146 44.7441 17.0173 40.6693C16.8581 40.1275 16.2898 39.8169 15.7483 39.9767C15.2066 40.1358 14.8965 40.7041 15.0556 41.2457C16.375 45.7363 19.1646 49.777 22.9102 52.6234C26.5101 55.3589 30.76 56.8945 35.2577 57.0968V60.5908C28.6672 60.3348 22.5408 57.6097 17.9131 52.8482C17.5194 52.4432 16.8722 52.4341 16.4674 52.8277C16.0626 53.2212 16.0533 53.8684 16.4468 54.2732C21.4631 59.4342 28.1099 62.3798 35.2577 62.6366V68.9625C35.2577 69.5273 35.7154 69.9848 36.28 69.9848C36.8446 69.9848 37.3023 69.5273 37.3023 68.9625V57.0943C40.8407 56.9317 44.2159 55.9299 47.1908 54.2432C47.225 54.2258 47.2584 54.2064 47.2909 54.1849ZM38.0701 43.9383C39.0994 43.9383 39.9367 44.7757 39.9367 45.805C39.9367 46.8342 39.0993 47.6716 38.0701 47.6716C37.801 47.6716 37.5415 47.6147 37.3021 47.5053V44.1044C37.5415 43.9954 37.801 43.9383 38.0701 43.9383ZM38.4628 21.228C40.152 21.228 41.5262 22.6022 41.5262 24.2915C41.5262 25.9807 40.152 27.3549 38.4628 27.3549C38.0619 27.3549 37.6686 27.2749 37.3021 27.1244V21.4584C37.6686 21.3079 38.0618 21.228 38.4628 21.228ZM46.3952 50.315C46.3952 48.6499 47.7498 47.2954 49.4148 47.2954C50.1943 47.2954 50.9277 47.5934 51.4813 48.1148C50.1612 49.6446 48.6232 50.9587 46.9253 52.0205C46.584 51.5222 46.3952 50.9285 46.3952 50.315Z" fill="#00A9E0"/>
<path d="M47.4177 40.1556C49.7779 40.1556 51.698 38.2353 51.698 35.8751C51.698 33.515 49.7779 31.5947 47.4177 31.5947C45.0575 31.5947 43.1372 33.515 43.1372 35.8751C43.1372 38.2353 45.0575 40.1556 47.4177 40.1556ZM47.4177 33.6393C48.6506 33.6393 49.6535 34.6422 49.6535 35.8751C49.6535 37.1079 48.6506 38.111 47.4177 38.111C46.1848 38.111 45.1818 37.1079 45.1818 35.8751C45.1818 34.6422 46.1848 33.6393 47.4177 33.6393Z" fill="#00A9E0"/>
</g>
<defs>
<clipPath id="clip0">
<rect width="70" height="70" fill="white"/>
</clipPath>
</defs>
</svg>
