<svg width="70" height="70" viewBox="0 0 70 70" fill="none" xmlns="http://www.w3.org/2000/svg">
<path d="M68.8333 21.0002H65.3333V19.2502C65.3333 16.995 63.5052 15.1668 61.25 15.1668C60.6433 15.1702 60.0453 15.3102 59.5 15.5763V14.0002C59.5 11.4229 57.4106 9.3335 54.8333 9.3335C52.256 9.3335 50.1667 11.4229 50.1667 14.0002V21.0002H45.5V19.8335C45.5085 17.9089 43.9552 16.3418 42.0306 16.3332C41.1564 16.3293 40.3126 16.6542 39.6667 17.2435C38.3477 16.0302 36.3189 16.0302 35 17.2435C33.6811 16.0302 31.6522 16.0302 30.3333 17.2435C28.9115 15.9465 26.7073 16.0477 25.4103 17.4695C24.8211 18.1154 24.4962 18.9592 24.5 19.8335V21.0002H19.8333V14.0002C19.8333 11.4229 17.744 9.3335 15.1667 9.3335C12.5894 9.3335 10.5 11.4229 10.5 14.0002V15.5763C9.95473 15.3102 9.35667 15.1702 8.75 15.1668C6.49483 15.1668 4.66667 16.995 4.66667 19.2502V21.0002H1.16667C0.522375 21.0002 0 21.5225 0 22.1668V29.1668C0 29.8111 0.522375 30.3335 1.16667 30.3335H4.66667V32.0835C4.66667 34.3387 6.49483 36.1668 8.75 36.1668C9.35667 36.1635 9.95473 36.0235 10.5 35.7573V37.3335C10.5 39.9108 12.5894 42.0002 15.1667 42.0002C17.744 42.0002 19.8333 39.9108 19.8333 37.3335V30.3335H22.1667V34.2337C22.1629 35.7814 22.7783 37.2664 23.8758 38.3578L26.8333 41.3165V60.6668H29.1667V40.8335C29.1667 40.524 29.0436 40.2274 28.8248 40.0087L25.5255 36.7082C24.8709 36.0507 24.5023 35.1615 24.5 34.2337V26.8335H31.3332C31.7749 26.8275 32.1934 27.0304 32.4625 27.3807C32.4707 27.3923 32.48 27.404 32.4882 27.4168C32.5382 27.4965 32.5774 27.5824 32.6048 27.6723C32.6269 27.7442 32.6417 27.818 32.6492 27.8928C32.6573 27.966 32.6573 28.0401 32.6492 28.1133C32.6465 28.1526 32.6414 28.1915 32.634 28.23C32.6076 28.3529 32.5622 28.4709 32.4998 28.58C32.2964 28.9412 31.9146 29.1652 31.5 29.1668H28C27.3557 29.1668 26.8333 29.6892 26.8333 30.3335V32.6668C26.8332 33.1692 27.1547 33.6152 27.6313 33.774L30.198 34.6315C32.2817 35.3233 33.8333 38.4768 33.8333 40.8335H36.1667C36.1667 37.624 34.1693 33.4928 30.9412 32.4172L29.1667 31.8257V31.5002H31.5C32.4819 31.4907 33.4141 31.067 34.0667 30.3335H44.3333V34.6117C44.3319 35.3687 44.0864 36.1051 43.6333 36.7117L41.0667 40.1335C40.9151 40.3355 40.8333 40.5811 40.8333 40.8335V60.6668H43.1667V41.222L45.5 38.1117C46.2551 37.1009 46.6643 35.8734 46.6667 34.6117V30.3335H50.1667V37.3335C50.1667 39.9108 52.256 42.0002 54.8333 42.0002C57.4106 42.0002 59.5 39.9108 59.5 37.3335V35.7573C60.0453 36.0235 60.6433 36.1635 61.25 36.1668C63.5052 36.1668 65.3333 34.3387 65.3333 32.0835V30.3335H68.8333C69.4776 30.3335 70 29.8111 70 29.1668V22.1668C70 21.5225 69.4776 21.0002 68.8333 21.0002ZM4.66667 28.0002H2.33333V23.3335H4.66667V28.0002ZM10.5 32.0835C10.5 33.0499 9.71644 33.8335 8.75 33.8335C7.78356 33.8335 7 33.0499 7 32.0835V19.2502C7 18.2837 7.78356 17.5002 8.75 17.5002C9.71644 17.5002 10.5 18.2837 10.5 19.2502V32.0835ZM17.5 37.3335C17.5 38.6222 16.4554 39.6668 15.1667 39.6668C13.8779 39.6668 12.8333 38.6222 12.8333 37.3335V14.0002C12.8333 12.7114 13.8779 11.6668 15.1667 11.6668C16.4554 11.6668 17.5 12.7114 17.5 14.0002V37.3335ZM23.3333 24.5002C22.689 24.5002 22.1667 25.0225 22.1667 25.6668V28.0002H19.8333V23.3335H24.5C24.5013 23.554 24.5235 23.7741 24.5665 23.9903C24.5793 24.0592 24.6015 24.1222 24.6178 24.1887C24.6447 24.2925 24.6645 24.3998 24.6995 24.5002H23.3333ZM29.1667 23.3335C29.1667 23.9778 28.6443 24.5002 28 24.5002C27.3557 24.5002 26.8333 23.9778 26.8333 23.3335V19.8335C26.8333 19.1892 27.3557 18.6668 28 18.6668C28.6443 18.6668 29.1667 19.1892 29.1667 19.8335V23.3335ZM33.8333 23.3335C33.8333 23.9778 33.311 24.5002 32.6667 24.5002C32.0224 24.5002 31.5 23.9778 31.5 23.3335V19.8335C31.5 19.1892 32.0224 18.6668 32.6667 18.6668C33.311 18.6668 33.8333 19.1892 33.8333 19.8335V23.3335ZM40.8333 19.8335C40.8333 19.1892 41.3557 18.6668 42 18.6668C42.6443 18.6668 43.1667 19.1892 43.1667 19.8335V23.3335C43.1667 23.9778 42.6443 24.5002 42 24.5002C41.3557 24.5002 40.8333 23.9778 40.8333 23.3335V19.8335ZM36.1667 19.8335C36.1667 19.1892 36.689 18.6668 37.3333 18.6668C37.9776 18.6668 38.5 19.1892 38.5 19.8335V23.3335C38.5 23.9778 37.9776 24.5002 37.3333 24.5002C36.689 24.5002 36.1667 23.9778 36.1667 23.3335V19.8335ZM50.1667 28.0002H35C35 27.9885 35 27.9792 35 27.9675C34.999 27.7355 34.9748 27.504 34.9277 27.2768C34.9207 27.2453 34.9055 27.2162 34.8985 27.1835C34.8775 27.0983 34.8472 27.019 34.8203 26.9362C34.771 26.7867 34.7114 26.641 34.6418 26.4998C34.608 26.4298 34.5917 26.3505 34.5532 26.2828C34.5664 26.2738 34.5793 26.264 34.5917 26.2537C34.6453 26.2187 34.692 26.1767 34.7433 26.137C34.8308 26.0717 34.923 26.011 35.0047 25.9375C35.0723 25.9982 35.1505 26.046 35.2228 26.1008C35.2952 26.1557 35.3663 26.2175 35.4445 26.2665C35.5546 26.3345 35.6684 26.3964 35.7852 26.452C35.8645 26.4905 35.9392 26.536 36.0185 26.5687C36.1547 26.6209 36.2943 26.6642 36.4362 26.6982C36.5097 26.718 36.5785 26.746 36.6543 26.7612C37.1031 26.8529 37.5658 26.8529 38.0147 26.7612C38.0905 26.746 38.1593 26.718 38.2328 26.6982C38.3747 26.6642 38.5143 26.6209 38.6505 26.5687C38.7333 26.5348 38.808 26.4893 38.8838 26.452C39.0011 26.3964 39.1151 26.3345 39.2257 26.2665C39.3027 26.2152 39.3727 26.1568 39.4462 26.1008C39.5197 26.0448 39.5967 25.9982 39.6643 25.9375C39.732 25.9982 39.8102 26.046 39.8825 26.1008C39.9548 26.1557 40.026 26.2175 40.1042 26.2665C40.2143 26.3345 40.328 26.3964 40.4448 26.452C40.5242 26.4905 40.5988 26.536 40.6782 26.5687C40.8144 26.6209 40.9539 26.6642 41.0958 26.6982C41.1693 26.718 41.2382 26.746 41.314 26.7612C43.2033 27.1451 45.046 25.925 45.43 24.0358C45.477 23.8047 45.5004 23.5695 45.5 23.3335H50.1667V28.0002ZM57.1667 37.3335C57.1667 38.6222 56.1221 39.6668 54.8333 39.6668C53.5446 39.6668 52.5 38.6222 52.5 37.3335V14.0002C52.5 12.7114 53.5446 11.6668 54.8333 11.6668C56.1221 11.6668 57.1667 12.7114 57.1667 14.0002V37.3335ZM63 32.0835C63 33.0499 62.2164 33.8335 61.25 33.8335C60.2836 33.8335 59.5 33.0499 59.5 32.0835V19.2502C59.5 18.2837 60.2836 17.5002 61.25 17.5002C62.2164 17.5002 63 18.2837 63 19.2502V32.0835ZM67.6667 28.0002H65.3333V23.3335H67.6667V28.0002Z" fill="#00A9E0"/>
</svg>
