<svg width="70" height="70" viewBox="0 0 70 70" fill="none" xmlns="http://www.w3.org/2000/svg">
<path d="M68.633 35.9316H65.1846C64.7632 35.9316 64.3653 36.126 64.1063 36.4582L62.0267 39.1248C61.562 39.7202 61.6683 40.579 62.2638 41.0436C62.5137 41.2386 62.8096 41.3326 63.1039 41.3326C63.5108 41.3326 63.913 41.1521 64.1827 40.8065L65.8521 38.6665H68.633C69.3881 38.6665 70.0001 38.0545 70.0001 37.2994C70.0001 36.5442 69.3881 35.9316 68.633 35.9316Z" fill="#00A9E0"/>
<path d="M57.4944 47.1572C56.8989 46.6931 56.0401 46.7989 55.5755 47.3943L53.6529 49.8596H47.6672L42.8863 33.4789C44.2802 32.9486 45.273 31.5991 45.273 30.0215C45.273 27.9824 43.6142 26.3231 41.5746 26.3231H40.7976L39.8069 22.9281C39.5949 22.2034 38.8355 21.7874 38.1113 21.9988C37.3866 22.2103 36.9705 22.9692 37.182 23.6939L37.9495 26.3231H37.2205L32.1411 21.4755C32.2489 21.4076 32.3563 21.3377 32.461 21.2634C33.9067 20.2402 34.8669 18.7155 35.1649 16.9696C35.4634 15.2243 35.064 13.4673 34.0407 12.0221C33.0174 10.5764 31.4927 9.61671 29.7469 9.31817C26.1436 8.70187 22.7112 11.1329 22.0954 14.7362C21.7237 16.9098 22.4623 19.0209 23.8973 20.4896C23.5166 20.6685 23.1587 20.8768 22.826 21.1118C22.1852 19.7724 20.9456 18.7502 19.4006 18.473C18.1722 18.253 16.9327 18.5285 15.9094 19.25C14.8638 19.9876 14.17 21.0973 13.9575 22.3748C13.8207 23.1946 13.8993 24.0032 14.1513 24.7402C14.0846 24.7722 14.0199 24.808 13.9591 24.8507C13.6611 25.059 13.4581 25.3778 13.3956 25.7367L11.4746 36.7661C11.1291 38.7528 12.4082 40.6492 14.326 40.9926L16.6283 41.4054C16.836 41.4428 17.0422 41.461 17.2462 41.461C17.3995 41.461 17.5501 41.4476 17.6991 41.4279L17.2729 47.9711L13.9548 54.8151C13.6402 55.465 13.4805 56.1598 13.4805 56.8792C13.4805 57.5804 13.6408 58.2613 13.9292 58.8787H12.3419C12.0813 58.8787 11.826 58.9535 11.6065 59.0934L0.632191 66.0917C-0.00440565 66.4976 -0.191326 67.343 0.214558 67.9796C0.475178 68.3881 0.917378 68.6119 1.36866 68.6119C1.6202 68.6119 1.87441 68.5425 2.10245 68.3972L12.7403 61.6131H17.9463C18.0355 61.6184 18.1242 61.6211 18.2128 61.6211C18.2865 61.6211 18.3597 61.6168 18.4329 61.6131H33.0105C33.3608 61.6131 33.6978 61.4785 33.952 61.2371L43.0486 52.5945H46.6332H46.6413H46.6461H54.3205C54.7413 52.5945 55.1392 52.4001 55.3982 52.0679L57.7315 49.0766C58.1961 48.4806 58.0898 47.6219 57.4944 47.1572ZM23.2896 42.128C22.7603 42.0372 22.1745 41.9982 21.6933 41.7451C20.8425 41.297 20.411 40.3475 20.5686 39.4123C20.6124 39.1533 20.6572 38.8937 20.7015 38.6347C24.6675 38.4505 27.4344 37.3354 29.2881 36.1455L28.9677 38.0211C28.8651 38.6219 29.1728 39.2185 29.7218 39.4833L34.5886 41.8284L40.2438 48.9671C40.9306 49.8345 40.7842 51.0986 39.9169 51.7854C39.0502 52.4722 37.786 52.3253 37.0992 51.4585L32.2116 45.2891C32.0834 45.1267 31.9194 44.9959 31.7336 44.9062L27.6144 42.9211C27.499 42.8655 27.3767 42.8265 27.2512 42.8052L23.2896 42.128ZM42.387 47.2694L36.5358 39.8828C36.4397 39.7621 36.3249 39.6596 36.1967 39.5784C36.1518 39.5501 36.1043 39.5234 36.0552 39.4999L31.8366 37.4667L32.477 33.7198H40.1081L44.8185 49.8596H43.3969C43.3301 48.9452 42.9984 48.0406 42.387 47.2694ZM36.6731 29.0575H39.7637C39.7663 29.0575 39.769 29.058 39.7717 29.058C39.7733 29.058 39.7749 29.0575 39.7765 29.0575H41.5746C42.1066 29.0575 42.5386 29.4901 42.5386 30.0215C42.5386 30.5528 42.1066 30.9854 41.5746 30.9854H41.1592C41.1576 30.9854 41.1559 30.9854 41.1549 30.9854H31.8313L29.067 28.603C28.4945 28.1106 27.6315 28.1747 27.1385 28.7467C26.6456 29.3186 26.7097 30.1817 27.2817 30.6746L29.4441 32.5379C28.3621 33.6616 25.8931 35.5126 21.1747 35.8672L21.6773 32.9273L22.6268 27.3741C22.6274 27.3704 22.6274 27.3666 22.6279 27.3629L22.9093 25.7159C23.1822 24.1206 24.543 22.4453 27.5385 22.4453C27.6074 22.4453 27.6769 22.4464 27.7479 22.448C27.7591 22.4485 27.7709 22.4485 27.7821 22.4485C28.7199 22.4485 29.5626 22.7722 30.1538 23.3591C30.1715 23.3767 30.1896 23.3938 30.2078 23.4104L35.7289 28.6794C35.9836 28.9224 36.3217 29.0575 36.6731 29.0575ZM24.7908 15.1965C25.115 13.3006 26.7658 11.9575 28.628 11.9575C28.8454 11.9575 29.0654 11.9756 29.2865 12.0136C30.3119 12.1887 31.2075 12.7527 31.8089 13.6019C32.4102 14.451 32.6452 15.4839 32.4695 16.5093C32.1459 18.4052 30.4946 19.7489 28.6323 19.7483C28.4149 19.7483 28.1949 19.7302 27.9738 19.6922C25.8568 19.3307 24.4287 17.3135 24.7908 15.1965ZM16.6545 22.8245C16.7463 22.2733 17.0411 21.7975 17.4849 21.4845C17.8118 21.2544 18.1915 21.1342 18.5803 21.1342C18.6924 21.1342 18.8051 21.1443 18.9178 21.1646C19.9998 21.3585 20.7272 22.4314 20.5397 23.5556C20.4479 24.1068 20.1525 24.5826 19.7087 24.8956C19.2879 25.1925 18.7795 25.3057 18.2764 25.216C17.1944 25.0216 16.4665 23.9487 16.6545 22.8245ZM17.1111 38.7143L14.8088 38.3009C14.3671 38.2219 14.0798 37.7434 14.1684 37.2344L15.8534 27.5594L19.7023 28.25L19.0534 32.0471L18.0195 38.0927C17.8839 38.5124 17.494 38.7827 17.1111 38.7143ZM17.3455 58.6865C16.648 58.3484 16.2149 57.6557 16.2149 56.8787C16.2149 56.5753 16.2827 56.2816 16.4157 56.0071L19.8497 48.9234C19.9272 48.7647 19.9726 48.5922 19.9838 48.416L20.2663 44.0832C21.297 44.6739 22.5259 44.7711 23.6784 44.9687C23.8952 45.0055 24.112 45.0429 24.3289 45.0797L24.0212 49.5135L20.0254 57.7567C19.7034 58.4205 19.0604 58.8253 18.3725 58.8787H18.0622C17.8198 58.8595 17.5773 58.7986 17.3455 58.6865ZM32.4642 58.8787H22.52L26.597 50.4684C26.6253 50.4102 26.6488 50.3509 26.6686 50.29C26.7017 50.1869 26.723 50.078 26.7311 49.9653L27.0285 45.6741L30.2633 47.2331L34.9561 53.1563C35.4955 53.8372 36.186 54.3291 36.9422 54.6239L32.4642 58.8787Z" fill="#00A9E0"/>
<path d="M53.0946 19.2474H60.0897C62.9843 19.2474 65.3395 16.8922 65.3395 13.9971C65.3395 11.1025 62.9843 8.74727 60.0897 8.74727C59.3906 8.74727 58.7028 8.88719 58.0656 9.15315C56.8961 7.63216 55.0701 6.70557 53.0946 6.70557C49.6366 6.70557 46.8237 9.51845 46.8237 12.9765C46.8237 14.6513 47.4758 16.2262 48.6604 17.4108C49.8449 18.5953 51.4193 19.2474 53.0946 19.2474ZM53.0946 9.43994C54.5035 9.43994 55.7772 10.2752 56.3396 11.5687C56.5115 11.9644 56.8603 12.256 57.2806 12.3548C57.7003 12.4531 58.1426 12.3479 58.4731 12.0702C58.9314 11.6851 59.49 11.4816 60.0897 11.4816C61.4767 11.4816 62.6051 12.6101 62.6051 13.9971C62.6051 15.3845 61.4767 16.513 60.0897 16.513H53.0946C52.1499 16.513 51.2618 16.145 50.5936 15.4769C49.9255 14.8094 49.5581 13.9212 49.5581 12.9765C49.5581 11.0261 51.1448 9.43994 53.0946 9.43994Z" fill="#00A9E0"/>
<path d="M8.26634 15.7993C11.0194 15.7993 13.2592 13.5594 13.2592 10.8064C13.2592 8.05331 11.0194 5.81348 8.26634 5.81348C6.9328 5.81348 5.67883 6.33258 4.73622 7.27573C3.79308 8.21887 3.27344 9.47284 3.27344 10.8064C3.27344 13.5594 5.51381 15.7993 8.26634 15.7993ZM6.66951 9.20955C7.09622 8.78284 7.66339 8.54785 8.26634 8.54785C9.51176 8.54785 10.5249 9.56096 10.5249 10.8064C10.5249 12.0518 9.51176 13.0649 8.26634 13.0649C7.02145 13.0649 6.00781 12.0518 6.00781 10.8064C6.00781 10.2029 6.2428 9.63573 6.66951 9.20955Z" fill="#00A9E0"/>
<path d="M0.683543 8.03783L1.32495 8.40793C1.54017 8.53236 1.77569 8.59164 2.00747 8.59164C2.48011 8.59164 2.9394 8.34651 3.19255 7.90752C3.57012 7.25383 3.34635 6.41749 2.69213 6.03991L2.05073 5.66981C1.39704 5.29223 0.560709 5.516 0.183131 6.17022C-0.193914 6.82391 0.0298561 7.66025 0.683543 8.03783Z" fill="#00A9E0"/>
<path d="M15.8486 13.6361L15.2072 13.266C14.5535 12.8884 13.7172 13.1122 13.3396 13.7664C12.962 14.4201 13.1863 15.2564 13.84 15.634L14.4814 16.0041C14.6967 16.1286 14.9316 16.1878 15.164 16.1878C15.6361 16.1878 16.0959 15.9427 16.349 15.5037C16.7266 14.85 16.5023 14.0137 15.8486 13.6361Z" fill="#00A9E0"/>
<path d="M1.36874 16.1878C1.60052 16.1878 1.83604 16.1286 2.05126 16.0041L2.69213 15.634C3.34635 15.2564 3.57012 14.4206 3.19255 13.7664C2.81497 13.1122 1.97917 12.8884 1.32495 13.266L0.683543 13.6361C0.0298561 14.0137 -0.193914 14.85 0.183131 15.5037C0.436808 15.9427 0.896098 16.1878 1.36874 16.1878Z" fill="#00A9E0"/>
<path d="M14.5252 8.59201C14.757 8.59201 14.992 8.53273 15.2072 8.40883L15.8486 8.0382C16.5028 7.66062 16.7266 6.82482 16.349 6.1706C15.9715 5.51691 15.1351 5.29261 14.4814 5.67018L13.84 6.04029C13.1863 6.41786 12.962 7.2542 13.3396 7.90842C13.5933 8.34688 14.0526 8.59201 14.5252 8.59201Z" fill="#00A9E0"/>
<path d="M8.26611 5.0164C9.02127 5.0164 9.6333 4.40437 9.6333 3.64922V2.87109C9.6333 2.11594 9.02127 1.50391 8.26611 1.50391C7.51096 1.50391 6.89893 2.11594 6.89893 2.87109V3.64922C6.89893 4.40437 7.51096 5.0164 8.26611 5.0164Z" fill="#00A9E0"/>
<path d="M6.89893 18.0913V18.8694C6.89893 19.6246 7.51096 20.2366 8.26611 20.2366C9.02127 20.2366 9.6333 19.6246 9.6333 18.8694V18.0913C9.6333 17.3362 9.02127 16.7241 8.26611 16.7241C7.51096 16.7241 6.89893 17.3367 6.89893 18.0913Z" fill="#00A9E0"/>
<path d="M61.0108 43.4573C60.7902 42.9201 60.2294 42.5751 59.6505 42.6172C59.0823 42.6584 58.5915 43.0578 58.4345 43.6047C58.2769 44.1532 58.4884 44.7588 58.9514 45.0915C59.4081 45.4189 60.0393 45.428 60.5061 45.1172C61.0428 44.761 61.2586 44.0517 61.0108 43.4573Z" fill="#00A9E0"/>
</svg>
