<svg width="70" height="70" viewBox="0 0 70 70" fill="none" xmlns="http://www.w3.org/2000/svg">
<g clip-path="url(#clip0)">
<path d="M34.649 6.30486C34.426 6.08872 34.1195 5.97321 33.8119 5.98694C31.8048 6.06585 29.8035 6.34718 27.865 6.82521L28.4128 9.04613C29.8183 8.69961 31.2593 8.46517 32.7128 8.34509V29.9733H8.15469C8.45546 28.5552 8.86945 27.16 9.3898 25.8093L7.25694 24.9859C6.51702 26.9026 5.97609 28.904 5.64901 30.9339C5.59526 31.2656 5.69018 31.6018 5.90747 31.858C6.12476 32.1141 6.44269 32.2605 6.77777 32.2605H33.8565C34.4889 32.2605 35.0001 31.7482 35.0001 31.1169V7.12942C35.0001 6.81835 34.8743 6.52101 34.649 6.30486Z" fill="#00A9E0"/>
<path d="M58.7861 17.8498L56.9563 19.2233C60.5484 24.0025 62.4468 29.6966 62.4468 35.6915C62.4468 36.0563 62.4377 36.4348 62.4194 36.8351H39.5744V8.63221C41.3916 8.93755 43.1733 9.42474 44.8876 10.0869L45.7122 7.95404C43.4215 7.06887 41.0176 6.47076 38.568 6.17799C38.2375 6.13911 37.9172 6.24204 37.6725 6.45818C37.4266 6.67433 37.2871 6.98539 37.2871 7.31361V37.9787C37.2871 38.61 37.7983 39.1223 38.4307 39.1223H63.4909C64.0868 39.1223 64.5831 38.6637 64.6311 38.0702C64.7009 37.201 64.7341 36.4234 64.7341 35.6915C64.7341 29.1968 62.6767 23.0281 58.7861 17.8498Z" fill="#00A9E0"/>
<path d="M33.8562 34.5479H6.40925C5.77682 34.5479 5.26562 35.0602 5.26562 35.6915C5.26562 37.2891 5.39257 38.889 5.64416 40.4489L7.90282 40.0853C7.73013 39.0171 7.62149 37.9284 7.57689 36.8351H32.7126V63.0378C30.4974 62.8548 28.3211 62.4065 26.2248 61.6997L25.494 63.868C28.1712 64.7704 30.9685 65.285 33.8104 65.3959C33.8253 65.3959 33.8402 65.3971 33.855 65.3971C34.1501 65.3971 34.4349 65.2827 34.6476 65.078C34.874 64.8619 34.9998 64.5645 34.9998 64.2534V35.6915C34.9998 35.0602 34.4886 34.5479 33.8562 34.5479Z" fill="#00A9E0"/>
<path d="M63.6545 41.8488C63.4395 41.5709 63.1078 41.4097 62.7567 41.4097H38.4307C37.7983 41.4097 37.2871 41.922 37.2871 42.5533V64.0694C37.2871 64.3965 37.4266 64.7075 37.6714 64.9248C37.8829 65.1124 38.1528 65.213 38.4307 65.213C38.4753 65.213 38.5211 65.2107 38.5668 65.205C39.7631 65.0621 40.9639 64.8436 42.1349 64.5554L41.5871 62.3345C40.9238 62.4981 40.2502 62.6376 39.5732 62.7508V43.6969H61.254C61.1751 43.9577 61.0916 44.2173 61.0047 44.4757L63.1719 45.2065C63.4372 44.4197 63.6716 43.6191 63.8649 42.8278C63.9495 42.487 63.8718 42.1256 63.6545 41.8488Z" fill="#00A9E0"/>
<path d="M26.7614 11.2247C26.7603 11.2235 26.7591 11.2235 26.758 11.2235C25.1581 10.0227 23.2631 9.388 21.2766 9.388C20.9324 9.388 20.5824 9.4143 20.2245 9.4589C19.1094 7.18081 17.1836 5.37274 14.8186 4.41781C15.7609 3.41829 16.9446 2.63033 18.2472 2.14086L17.4432 0C15.7998 0.616413 14.3062 1.61365 13.1214 2.88193C12.847 3.17584 12.6034 3.47433 12.3769 3.7751C11.9195 3.71334 11.4575 3.66989 10.984 3.66989C5.30821 3.66989 0.691406 8.28783 0.691406 13.9625C0.691406 19.6371 5.30821 24.2551 10.984 24.2551C11.971 24.2551 12.9236 24.1076 13.8282 23.8468C15.1354 25.6766 17.0818 26.9746 19.2913 27.4641C19.2924 27.4641 19.2924 27.4652 19.2936 27.4652C19.9569 27.6116 20.6247 27.686 21.2766 27.686C23.4541 27.686 25.5686 26.9014 27.228 25.4788C27.2292 25.4776 27.2292 25.4776 27.2303 25.4765C29.2602 23.7336 30.4256 21.2039 30.4256 18.537C30.4256 15.639 29.0898 12.9744 26.7614 11.2247ZM10.984 21.9678C6.57077 21.9678 2.97865 18.3769 2.97865 13.9625C2.97865 9.54811 6.57077 5.95713 10.984 5.95713C11.0149 5.95713 11.0435 5.9617 11.0744 5.9617C10.6272 6.95551 10.3779 7.88757 10.2407 8.64236L12.4902 9.05292C12.6263 8.30727 12.8996 7.34663 13.4359 6.34482C15.7609 7.09503 17.617 8.88137 18.4725 11.1572C18.5536 11.3745 18.6257 11.5929 18.6875 11.8125C18.6955 11.8411 18.7023 11.8697 18.7092 11.8983C18.7629 12.0972 18.8098 12.2962 18.8487 12.4975C18.8647 12.5856 18.8762 12.6748 18.8899 12.7628C18.9127 12.9115 18.9368 13.0602 18.9516 13.21C18.9745 13.457 18.9894 13.7086 18.9894 13.9625C18.9894 14.5515 18.9173 15.1621 18.7744 15.7774C17.9475 19.3192 14.7728 21.9678 10.984 21.9678ZM18.6932 24.8909C17.6548 24.4678 16.7387 23.7908 16.0171 22.9308C17.7062 21.9793 19.1037 20.5703 20.0312 18.8663L18.6932 24.8909ZM28.0434 17.3934H23.5639L26.2479 13.8161C27.1971 14.8076 27.8193 16.045 28.0434 17.3934ZM24.4181 12.4415L23.4186 13.7738L21.4196 16.4384L21.0948 15.8529V15.8518C21.152 15.5453 21.1988 15.2353 21.2274 14.9197C21.2595 14.5995 21.2766 14.2793 21.2766 13.9625C21.2766 13.5839 21.2526 13.2111 21.2126 12.8429C21.2069 12.7891 21.1954 12.7365 21.1886 12.6828C21.1474 12.3523 21.0913 12.0263 21.0193 11.7061C21.0182 11.6981 21.017 11.6901 21.0147 11.681C22.2407 11.6272 23.374 11.8994 24.4181 12.4415ZM20.9255 25.3896L21.8965 21.0186L24.8081 24.4152C23.6462 25.114 22.3024 25.4605 20.9255 25.3896ZM26.5441 22.9251L23.764 19.6806H28.0423C27.8399 20.8734 27.3229 21.993 26.5441 22.9251Z" fill="#00A9E0"/>
<path d="M45.2926 21.9678H43.0054V24.255H45.2926V21.9678Z" fill="#00A9E0"/>
<path d="M49.8673 24.2554H47.5801V26.5426H49.8673V24.2554Z" fill="#00A9E0"/>
<path d="M54.4415 32.2607H52.1543V34.548H54.4415V32.2607Z" fill="#00A9E0"/>
<path d="M45.2926 31.1167H43.0054V33.4039H45.2926V31.1167Z" fill="#00A9E0"/>
<path d="M44.1491 26.5425H41.8618V28.8297H44.1491V26.5425Z" fill="#00A9E0"/>
<path d="M60.1598 27.686H57.8726V29.9733H60.1598V27.686Z" fill="#00A9E0"/>
<path d="M54.4415 23.1118H52.1543V25.3991H54.4415V23.1118Z" fill="#00A9E0"/>
<path d="M49.8673 28.8296H47.5801V31.1168H49.8673V28.8296Z" fill="#00A9E0"/>
<path d="M54.4415 27.686H52.1543V29.9733H54.4415V27.686Z" fill="#00A9E0"/>
<path d="M69.3085 1.38271C66.3282 1.38271 63.4897 2.15809 60.9349 3.49155C60.7119 2.98378 60.4088 2.49774 59.996 2.0849C58.4418 0.531858 55.577 1.33468 55.2545 1.43075C54.8874 1.54168 54.5992 1.82873 54.4883 2.19583C54.3922 2.51719 53.5883 5.38196 55.1436 6.93729C55.3231 7.11569 55.5176 7.26894 55.7154 7.41189C54.9663 8.1987 54.287 9.05756 53.6603 9.95988C53.5025 9.73116 53.3355 9.50701 53.1342 9.30573C51.627 7.79958 48.8125 8.31535 48.4957 8.38054C48.0726 8.46631 47.7341 8.78309 47.6186 9.19937C47.4642 9.76318 46.7723 12.6485 48.2819 14.1581C49.0401 14.9141 49.9927 15.3383 50.9362 15.4218C50.2546 17.4906 49.8669 19.6898 49.8669 21.9679H52.1542C52.1542 20.3245 52.3989 18.7212 52.822 17.1807C53.4533 17.5375 54.2024 17.7514 55.0132 17.7514C57.1998 17.7514 58.706 15.1737 58.8707 14.8786C59.0639 14.5321 59.0639 14.1089 58.8707 13.7613C58.7266 13.504 57.5578 11.5026 55.8057 11.0029C56.5079 10.0388 57.2925 9.14677 58.1502 8.33822C58.7334 9.61908 60.179 10.5317 61.8749 10.5317C64.0616 10.5317 65.5677 7.95397 65.7324 7.65891C65.9257 7.3124 65.9257 6.88926 65.7324 6.54159C65.634 6.36548 65.0474 5.3751 64.129 4.60544C65.7793 4.00618 67.521 3.66996 69.3085 3.66996V1.38271ZM52.1519 12.4678C52.0604 12.6474 51.9838 12.8349 51.8968 13.0179C51.8317 13.0351 51.7653 13.0499 51.7036 13.0785C51.2713 13.2741 50.5142 13.154 49.9001 12.5399C49.5924 12.2323 49.5742 11.3299 49.6828 10.5374C50.3861 10.5054 51.1844 10.59 51.5172 10.9228C51.9483 11.354 52.1908 11.9235 52.1496 12.4095C52.1484 12.429 52.153 12.4484 52.1519 12.4678ZM56.5022 14.3205C56.0573 14.9026 55.4535 15.4641 55.0132 15.4641C54.4254 15.4641 53.8879 15.2423 53.5757 14.9404C53.8124 14.372 54.0777 13.8185 54.3659 13.2775C54.5718 13.2158 54.7879 13.1769 55.0132 13.1769C55.4547 13.1769 56.0573 13.7384 56.5022 14.3205ZM57.4789 5.78909C57.2353 5.68845 56.9894 5.54893 56.7618 5.32021C56.453 5.01143 56.4347 4.19717 56.5434 3.48583C57.2147 3.38634 58.0553 3.37833 58.3789 3.70198C58.6648 3.98788 58.8569 4.3344 58.9496 4.67749C58.4429 5.02401 57.9535 5.39568 57.4789 5.78909ZM61.8749 8.24445C60.9612 8.24445 60.1595 7.71038 60.1572 7.16601C60.1607 7.14543 60.1755 7.05165 60.1778 7.03106C60.1915 6.9167 60.1835 6.80348 60.1629 6.69255C60.4123 6.51758 60.6661 6.35061 60.9223 6.18821C61.2128 6.04755 61.533 5.9572 61.8749 5.9572C62.3164 5.9572 62.9191 6.51872 63.3639 7.10083C62.9191 7.68293 62.3152 8.24445 61.8749 8.24445Z" fill="#00A9E0"/>
<path d="M26.7523 46.2964C26.9124 45.831 26.9947 45.3404 26.9947 44.8406C26.9947 42.3178 24.9431 40.2661 22.4202 40.2661C21.0262 40.2661 19.7281 40.9145 18.875 41.9678C17.9167 41.4452 16.7707 41.2782 15.6969 41.523C14.6859 40.7076 13.4417 40.2661 12.1276 40.2661C8.97466 40.2661 6.40952 42.8313 6.40952 45.9842C3.88669 45.9842 1.83503 48.0359 1.83503 50.5587C1.83503 51.333 2.02716 52.0752 2.38854 52.735C1.33755 53.5882 0.691406 54.8839 0.691406 56.2768C0.691406 58.7997 2.74306 60.8513 5.2659 60.8513C6.91957 60.8513 8.37312 59.9684 9.17594 58.6487L11.0275 62.3518L12.1436 69.0442C12.2351 69.5955 12.712 70.0003 13.2713 70.0003H22.4202C23.0527 70.0003 23.5639 69.488 23.5639 68.8567V62.0899L24.6915 55.3219C24.7018 55.259 24.7075 55.1961 24.7075 55.1332C27.8604 55.1332 30.4256 53.0815 30.4256 50.5587C30.4256 48.6191 28.9103 46.954 26.7523 46.2964ZM24.7075 52.846C24.4376 52.846 24.1563 52.8128 23.796 52.7385C23.4598 52.6687 23.1087 52.7545 22.8422 52.9718C22.5758 53.1891 22.4202 53.5138 22.4202 53.8581V55.0394L21.2926 61.8074C21.2823 61.8691 21.2766 61.932 21.2766 61.9949V67.7131H14.2399L13.2564 61.8062C13.2369 61.6942 13.2026 61.5855 13.1512 61.4826L9.72031 54.6209C9.52589 54.2343 9.1302 53.9896 8.69676 53.9896H8.46804C8.09408 53.9896 7.74298 54.1726 7.53027 54.4791C7.31527 54.7867 7.26609 55.179 7.39532 55.5289C7.50282 55.8217 7.55314 56.0595 7.55314 56.2768C7.55314 57.5382 6.52731 58.5641 5.2659 58.5641C4.00448 58.5641 2.97865 57.5382 2.97865 56.2768C2.97865 55.3299 3.58134 54.4711 4.47908 54.1405C4.85191 54.0022 5.12637 53.682 5.20528 53.2908C5.28305 52.9009 5.15268 52.4983 4.86105 52.2284C4.38416 51.787 4.12227 51.1934 4.12227 50.5587C4.12227 49.2973 5.1481 48.2715 6.40952 48.2715C6.63824 48.2715 6.87955 48.3195 7.16545 48.4224C7.5154 48.5482 7.90423 48.4956 8.21073 48.2818C8.51607 48.0679 8.69676 47.7191 8.69676 47.3463V45.9842C8.69676 44.0927 10.2361 42.5534 12.1276 42.5534C13.0597 42.5534 13.9346 42.9262 14.5887 43.6032C14.9124 43.9394 15.4098 44.0446 15.8421 43.8674C16.7307 43.5037 17.728 43.7404 18.373 44.4358C18.644 44.7274 19.0477 44.8578 19.4365 44.7788C19.8265 44.7011 20.1479 44.4255 20.2851 44.0526C20.6156 43.156 21.4733 42.5534 22.4202 42.5534C23.6817 42.5534 24.7075 43.5792 24.7075 44.8406C24.7075 45.4021 24.4925 45.9465 24.1014 46.3742C23.8006 46.7036 23.7194 47.1759 23.8898 47.5864C24.0613 47.997 24.4559 48.2715 24.9008 48.2886C26.6848 48.3584 28.1383 49.3774 28.1383 50.5587C28.1383 51.7984 26.567 52.846 24.7075 52.846Z" fill="#00A9E0"/>
<path d="M61.5903 45.9839H60.3918C56.4097 45.9839 53.1081 48.9722 52.7112 52.9348L52.2172 57.8787L49.9013 59.2682L49.532 58.8988C49.3181 58.6838 49.0276 58.5637 48.7234 58.5637H48.1516C45.9444 58.5637 44.1489 60.3592 44.1489 62.5664C44.1489 64.5918 45.6608 66.2706 47.6152 66.5336C47.8783 68.4881 49.5571 70 51.5825 70C53.7897 70 55.5852 68.2045 55.5852 65.9973V65.4255C55.5852 65.1224 55.4651 64.8308 55.2501 64.6169L54.8807 64.2475L56.2668 61.9374L62.2891 61.3896C66.2906 61.026 69.3086 57.7209 69.3086 53.7033C69.3086 49.4468 65.8469 45.9839 61.5903 45.9839ZM52.6323 65.2333L53.2979 65.8989V65.9973C53.2979 66.9431 52.5282 67.7127 51.5825 67.7127C50.6367 67.7127 49.867 66.9431 49.867 65.9973V65.4255C49.867 64.7942 49.3558 64.2819 48.7234 64.2819H48.1516C47.2058 64.2819 46.4362 63.5122 46.4362 62.5664C46.4362 61.6206 47.2058 60.851 48.1516 60.851H48.25L48.9155 61.5166C49.2861 61.8882 49.8613 61.958 50.3131 61.6881L53.1206 60.0036L53.633 60.5159L54.1453 61.0282L52.4608 63.8358C52.1909 64.2864 52.2618 64.8617 52.6323 65.2333ZM62.0821 59.1115L56.0152 59.6628L54.4896 58.1372L54.9882 53.1613C55.2672 50.3731 57.5899 48.2711 60.3918 48.2711H61.5903C64.5843 48.2711 67.0214 50.7082 67.0214 53.7033C67.0214 56.5304 64.8988 58.8554 62.0821 59.1115Z" fill="#00A9E0"/>
<path d="M13.9186 10.6299C13.11 11.5985 11.7788 11.9405 10.6821 11.4602C9.75463 11.053 9.12449 10.097 9.07646 9.02539L6.7915 9.12717C6.87728 11.0622 8.04377 12.7993 9.76263 13.5541C10.3882 13.8286 11.0526 13.9601 11.7148 13.9601C13.1946 13.9601 14.6665 13.3014 15.674 12.096L13.9186 10.6299Z" fill="#00A9E0"/>
<path d="M58.3369 51.3178C57.1899 52.164 56.7542 53.5135 56.729 54.4959L59.0162 54.5554C59.0185 54.4616 59.0574 53.629 59.6956 53.159C60.2822 52.7267 61.1331 52.7427 61.817 53.1933L63.0773 51.2846C61.5963 50.3056 59.6898 50.3194 58.3369 51.3178Z" fill="#00A9E0"/>
<path d="M16.2251 52.7624C14.8585 51.413 12.8354 50.5587 10.9839 50.5587V52.8459C12.9807 52.8459 15.5584 54.5099 15.5584 56.2768V60.8513H17.8456V56.2768C17.8456 54.901 18.1796 51.7023 21.2765 51.7023V49.415C18.8783 49.415 17.1194 50.6524 16.2251 52.7624Z" fill="#00A9E0"/>
</g>
<defs>
<clipPath id="clip0">
<rect width="70" height="70" fill="white"/>
</clipPath>
</defs>
</svg>
