<svg width="320" height="119" viewBox="0 0 320 119" fill="none" xmlns="http://www.w3.org/2000/svg">
<path d="M259.557 96.5249C280.507 96.5249 297.491 79.5413 297.491 58.591C297.491 37.6408 280.507 20.6572 259.557 20.6572C238.607 20.6572 221.623 37.6408 221.623 58.591C221.623 79.5413 238.607 96.5249 259.557 96.5249Z" fill="#8FCF97"/>
<mask id="mask0" mask-type="alpha" maskUnits="userSpaceOnUse" x="200" y="0" width="120" height="119">
<circle cx="259.589" cy="59.5" r="59.5" fill="#C4C4C4"/>
</mask>
<g mask="url(#mask0)">
<path d="M256.566 -9.78635C257.771 -6.79098 260.662 11.0284 262.161 20.6065C262.786 24.6058 262.78 28.6786 262.141 32.6758L245.975 133.828C245.967 133.873 245.97 133.918 245.983 133.962C245.995 134.006 246.017 134.046 246.046 134.08C246.076 134.115 246.112 134.143 246.153 134.161C246.194 134.18 246.239 134.19 246.285 134.19H378.898C378.946 134.19 378.993 134.179 379.036 134.159C379.078 134.138 379.116 134.108 379.145 134.07C379.175 134.033 379.195 133.989 379.205 133.943C379.215 133.896 379.214 133.848 379.203 133.802L355.87 39.3278C353.598 31.0391 353.434 22.3141 355.392 13.9457L360.944 -9.83188C360.954 -9.8779 360.954 -9.92571 360.944 -9.97176C360.933 -10.0178 360.913 -10.0609 360.883 -10.0979C360.854 -10.1349 360.817 -10.1648 360.774 -10.1853C360.732 -10.2059 360.685 -10.2166 360.638 -10.2167H256.861C256.809 -10.2177 256.758 -10.2058 256.712 -10.1821C256.666 -10.1585 256.627 -10.1237 256.598 -10.081C256.568 -10.0384 256.55 -9.9891 256.545 -9.93766C256.539 -9.88622 256.547 -9.83423 256.566 -9.78635Z" fill="#FFB18F"/>
<path d="M237.682 156.864L247.539 87.3428C247.539 87.3428 260.705 91.8049 289.395 91.4201C318.086 91.0352 349.888 87.3428 349.888 87.3428C349.888 87.3428 357.464 88.9884 358.706 100.504C359.949 112.019 359.761 156.864 359.761 156.864H237.682Z" fill="#333333"/>
<path d="M309.103 101.216C309.978 101.216 310.687 100.506 310.687 99.6317C310.687 98.757 309.978 98.0479 309.103 98.0479C308.229 98.0479 307.52 98.757 307.52 99.6317C307.52 100.506 308.229 101.216 309.103 101.216Z" fill="#1A1A1A"/>
<path d="M301.727 93.4517L316.908 156.864" stroke="#1A1A1A" stroke-width="2" stroke-miterlimit="10"/>
</g>
<path d="M19.2786 59.9327C29.9259 59.9327 38.5572 51.3014 38.5572 40.6541C38.5572 30.0068 29.9259 21.3755 19.2786 21.3755C8.63132 21.3755 0 30.0068 0 40.6541C0 51.3014 8.63132 59.9327 19.2786 59.9327Z" fill="#8FCF97"/>
<path d="M255.902 54.1452L255.285 54.0526C253.376 53.7663 251.596 55.0817 251.31 56.9907L251.129 58.1936C250.843 60.1025 252.158 61.8822 254.067 62.1685L254.685 62.2611C256.594 62.5474 258.373 61.232 258.66 59.323L258.84 58.1201C259.126 56.2112 257.811 54.4316 255.902 54.1452Z" fill="#F2F2F2"/>
<path d="M260.944 59.0915L260.983 59.1034C261.022 59.1141 261.055 59.1388 261.076 59.1726C261.098 59.2064 261.106 59.247 261.1 59.2867C259.71 68.2717 257.424 75.3628 255.98 75.1471C254.509 74.9302 254.432 67.1822 255.809 57.9922C257.187 48.8023 259.533 41.4206 261.005 41.6375C262.476 41.8543 262.553 49.5113 261.2 58.6297C261.192 58.6725 261.169 58.7107 261.134 58.7362C261.099 58.7618 261.055 58.7726 261.012 58.7663C260.969 58.7572 260.924 58.7657 260.887 58.7898C260.85 58.8139 260.824 58.8516 260.815 58.8947C260.806 58.9379 260.815 58.9828 260.839 59.0197C260.863 59.0566 260.901 59.0825 260.944 59.0915Z" fill="#F2F2F2"/>
<path d="M278.6 61.5197L253.511 57.5552" stroke="#8B8BB5" stroke-miterlimit="10"/>
<path d="M29.3121 22.6897C27.9602 22.6323 26.6593 23.0659 25.4668 23.4995C25.2227 23.6276 24.9689 23.7363 24.7079 23.8248C22.4313 24.9089 20.6967 26.9687 19.9443 29.4404" stroke="#F2F2F2" stroke-width="9" stroke-linecap="round" stroke-linejoin="round"/>
<path d="M107.596 33.7128C107.057 31.3089 105.885 29.0929 104.202 27.2938C102.534 25.4898 100.438 24.134 98.1093 23.3509C96.7946 22.9121 95.4201 22.6785 94.0342 22.6582" stroke="#F2F2F2" stroke-width="9" stroke-linecap="round" stroke-linejoin="round"/>
<path d="M142.746 66.1059C142.225 70.117 140.057 74.0198 136.48 76.2964L136.154 76.6217C134.745 77.3805 133.336 78.2478 131.709 78.4646C127.048 79.1151 122.603 79.0067 117.833 78.1394C117.725 78.1394 117.725 77.9226 117.616 77.9226C117.074 77.7058 116.64 77.5974 116.098 77.2721C115.882 77.1637 115.773 77.2721 115.556 77.1637C112.955 75.8628 111.003 73.803 109.485 71.3096C109.377 71.2011 109.485 70.9843 109.377 70.8759C108.316 69.0321 107.846 66.907 108.031 64.7876" stroke="#F2F2F2" stroke-width="9" stroke-linecap="round" stroke-linejoin="round"/>
<path d="M174.117 35.9312C174.098 35.4249 174.206 34.7745 174.098 34.2324C173.447 31.6306 172.688 29.2456 170.737 27.2942C169.219 25.8848 167.593 24.4755 165.75 23.8251C160.655 21.8737 154.692 21.8737 149.814 24.4755C149.163 25.2344 148.296 25.4512 147.646 26.1017C145.586 28.0531 143.743 30.4381 143.309 33.3652C143.201 34.0156 143.309 34.7745 143.126 35.4531" stroke="#F2F2F2" stroke-width="9" stroke-linecap="round" stroke-linejoin="round"/>
<path d="M207.598 97.5774C207.273 101.23 204.887 104.157 201.852 106.325C199.467 108.06 196.865 108.385 194.155 108.927C192.973 109.125 191.769 109.162 190.577 109.035C189.927 109.035 189.168 109.144 188.518 109.035C186.891 108.818 185.374 108.602 183.856 108.06C178.761 106.217 174.207 101.447 174.403 95.8223" stroke="#F2F2F2" stroke-width="9" stroke-linecap="round" stroke-linejoin="round"/>
<path d="M240.554 36.0752C240.404 32.9475 239.327 29.9207 237.261 27.5411C235.181 25.1521 232.381 23.5026 229.283 22.8404C226.26 22.19 222.959 22.2214 219.915 22.7266C216.908 23.2253 213.921 24.4774 211.863 26.7996C209.936 28.9732 208.388 31.4981 208.084 34.4447C208.047 34.7954 208.028 35.1479 208.028 35.5006" stroke="#F2F2F2" stroke-width="9" stroke-linecap="round" stroke-linejoin="round"/>
<path d="M254.724 59.4203C255.553 59.4203 256.225 58.7488 256.225 57.9204C256.225 57.092 255.553 56.4203 254.725 56.4203L254.724 59.4203ZM240.472 43.6665H241.972H240.472ZM240.472 36.9066H238.972H240.472ZM226.219 22.6528L226.219 21.1528H226.219V22.6528ZM222.181 22.6528V21.1528H222.181L222.181 22.6528ZM207.928 36.9066H209.428H207.928ZM207.928 94.4887H206.428V94.4889L207.928 94.4887ZM193.676 108.744V107.244V108.744ZM188.505 108.744V107.244H188.505L188.505 108.744ZM174.25 94.4887L175.75 94.4888V94.4887H174.25ZM174.25 36.9066H172.75H174.25ZM159.997 22.6528L159.997 21.1528H159.997V22.6528ZM157.07 22.6528V21.1528H157.07L157.07 22.6528ZM142.816 36.9066L141.316 36.9065V36.9066H142.816ZM122.167 78.7052V77.2052H122.167L122.167 78.7052ZM107.913 64.4526H109.413H107.913ZM19.2598 33.148H20.7598L20.7598 33.1442L19.2598 33.148ZM254.725 56.4203C251.342 56.42 248.099 55.0762 245.707 52.6844L243.586 54.8057C246.54 57.7601 250.547 59.42 254.724 59.4203L254.725 56.4203ZM245.707 52.6844C243.315 50.2927 241.972 47.0489 241.972 43.6665H238.972C238.972 47.8444 240.631 51.8513 243.586 54.8057L245.707 52.6844ZM241.972 43.6665V36.9066H238.972V43.6665H241.972ZM241.972 36.9066C241.972 32.7287 240.312 28.7218 237.358 25.7674L235.237 27.8887C237.628 30.2804 238.972 33.5243 238.972 36.9066H241.972ZM237.358 25.7674C234.404 22.8131 230.397 21.1531 226.219 21.1528L226.219 24.1528C229.601 24.1531 232.845 25.4969 235.237 27.8887L237.358 25.7674ZM226.219 21.1528H222.181V24.1528H226.219V21.1528ZM222.181 21.1528C218.003 21.1531 213.996 22.8131 211.042 25.7674L213.163 27.8887C215.555 25.4969 218.799 24.1531 222.181 24.1528L222.181 21.1528ZM211.042 25.7674C208.088 28.7218 206.428 32.7287 206.428 36.9066H209.428C209.428 33.5243 210.772 30.2804 213.163 27.8887L211.042 25.7674ZM206.428 36.9066V94.4887H209.428V36.9066H206.428ZM206.428 94.4889C206.428 96.1638 206.099 97.8223 205.458 99.3698L208.23 100.517C209.021 98.606 209.429 96.5573 209.428 94.4885L206.428 94.4889ZM205.458 99.3698C204.817 100.917 203.878 102.323 202.694 103.508L204.815 105.629C206.278 104.166 207.438 102.429 208.23 100.517L205.458 99.3698ZM202.694 103.508C201.51 104.692 200.104 105.632 198.556 106.273L199.704 109.044C201.616 108.252 203.352 107.092 204.815 105.629L202.694 103.508ZM198.556 106.273C197.009 106.914 195.35 107.244 193.676 107.244V110.244C195.744 110.244 197.793 109.836 199.704 109.044L198.556 106.273ZM193.676 107.244H188.505V110.244H193.676V107.244ZM188.505 107.244C186.83 107.244 185.171 106.914 183.624 106.273L182.476 109.045C184.388 109.837 186.437 110.244 188.506 110.244L188.505 107.244ZM183.624 106.273C182.076 105.632 180.67 104.693 179.485 103.508L177.364 105.63C178.827 107.093 180.564 108.253 182.476 109.045L183.624 106.273ZM179.485 103.508C178.301 102.324 177.361 100.918 176.72 99.3702L173.949 100.518C174.74 102.43 175.901 104.167 177.364 105.63L179.485 103.508ZM176.72 99.3702C176.079 97.8226 175.749 96.1639 175.75 94.4888L172.75 94.4886C172.749 96.5577 173.157 98.6066 173.949 100.518L176.72 99.3702ZM175.75 94.4887V36.9066H172.75V94.4887H175.75ZM175.75 36.9066C175.75 32.7287 174.09 28.7218 171.136 25.7674L169.014 27.8887C171.406 30.2804 172.75 33.5243 172.75 36.9066H175.75ZM171.136 25.7674C168.182 22.8131 164.175 21.1531 159.997 21.1528L159.997 24.1528C163.379 24.1531 166.623 25.4969 169.014 27.8887L171.136 25.7674ZM159.997 21.1528H157.07V24.1528H159.997V21.1528ZM157.07 21.1528C152.892 21.1531 148.885 22.813 145.93 25.7673L148.052 27.8886C150.444 25.4969 153.687 24.1531 157.07 24.1528L157.07 21.1528ZM145.93 25.7673C142.976 28.7216 141.316 32.7285 141.316 36.9065L144.316 36.9067C144.316 33.5243 145.66 30.2804 148.052 27.8886L145.93 25.7673ZM141.316 36.9066V64.4526H144.316V36.9066H141.316ZM141.316 64.4526C141.316 66.1273 140.986 67.7856 140.345 69.3328L143.117 70.4809C143.909 68.5697 144.316 66.5212 144.316 64.4526H141.316ZM140.345 69.3328C139.704 70.88 138.765 72.2859 137.581 73.4701L139.702 75.5914C141.165 74.1286 142.325 72.3921 143.117 70.4809L140.345 69.3328ZM137.581 73.4701C136.397 74.6543 134.991 75.5936 133.444 76.2345L134.592 79.0061C136.503 78.2145 138.239 77.0542 139.702 75.5914L137.581 73.4701ZM133.444 76.2345C131.896 76.8754 130.238 77.2052 128.563 77.2052V80.2052C130.632 80.2052 132.68 79.7978 134.592 79.0061L133.444 76.2345ZM128.563 77.2052H122.167V80.2052H128.563V77.2052ZM122.167 77.2052C120.492 77.2054 118.834 76.8756 117.286 76.2348L116.139 79.0065C118.05 79.7981 120.098 80.2054 122.167 80.2052L122.167 77.2052ZM117.286 76.2348C115.739 75.594 114.333 74.6546 113.149 73.4704L111.028 75.5918C112.49 77.0546 114.227 78.2149 116.139 79.0065L117.286 76.2348ZM113.149 73.4704C111.965 72.2862 111.025 70.8803 110.384 69.333L107.613 70.4811C108.404 72.3924 109.565 74.129 111.028 75.5918L113.149 73.4704ZM110.384 69.333C109.743 67.7857 109.413 66.1273 109.413 64.4526H106.413C106.413 66.5213 106.821 68.5698 107.613 70.4811L110.384 69.333ZM109.413 64.4526V36.9066H106.413V64.4526H109.413ZM109.413 36.9066C109.413 34.8378 109.006 32.7892 108.214 30.8779L105.442 32.0259C106.083 33.5733 106.413 35.2318 106.413 36.9066H109.413ZM108.214 30.8779C107.422 28.9666 106.262 27.2299 104.799 25.767L102.678 27.8883C103.862 29.0726 104.802 30.4786 105.442 32.0259L108.214 30.8779ZM104.799 25.767C103.336 24.3041 101.6 23.1437 99.6882 22.352L98.5402 25.1237C100.088 25.7646 101.494 26.704 102.678 27.8883L104.799 25.767ZM99.6882 22.352C97.7769 21.5603 95.7283 21.1528 93.6595 21.1528V24.1528C95.3344 24.1528 96.9928 24.4827 98.5402 25.1237L99.6882 22.352ZM93.6595 21.1528H30.4336V24.1528H93.6595V21.1528ZM30.4336 21.1528C27.3902 21.1528 25.0082 21.8689 23.1667 23.0211C21.3299 24.1703 20.1168 25.6993 19.3215 27.1969C18.5304 28.6867 18.144 30.1599 17.9531 31.2492C17.857 31.7971 17.8088 32.2573 17.7845 32.5869C17.7724 32.7519 17.7662 32.8849 17.763 32.9807C17.7614 33.0286 17.7606 33.0672 17.7602 33.096C17.76 33.1103 17.7599 33.1222 17.7598 33.1316C17.7598 33.1363 17.7598 33.1403 17.7598 33.1437C17.7598 33.1454 17.7598 33.1469 17.7598 33.1483C17.7598 33.149 17.7598 33.1499 17.7598 33.1502C17.7598 33.1511 17.7598 33.1519 19.2598 33.148C20.7598 33.1442 20.7598 33.1449 20.7598 33.1456C20.7598 33.1458 20.7598 33.1464 20.7598 33.1468C20.7598 33.1475 20.7598 33.1481 20.7598 33.1485C20.7598 33.1494 20.7598 33.1496 20.7598 33.1492C20.7598 33.1485 20.7598 33.1454 20.7599 33.1399C20.76 33.1289 20.7604 33.1086 20.7614 33.0796C20.7633 33.0216 20.7674 32.9292 20.7764 32.8072C20.7944 32.5628 20.8316 32.2031 20.908 31.7671C21.062 30.8885 21.3689 29.738 21.9711 28.6039C22.5692 27.4778 23.4495 26.383 24.7579 25.5643C26.0616 24.7487 27.8766 24.1528 30.4336 24.1528V21.1528ZM17.7598 33.148V39.5778H20.7598V33.148H17.7598Z" fill="#447AC7"/>
<path d="M11.2607 116.509L11.3106 41.2656L27.8237 41.2765L27.8204 46.0552L53.8334 46.0725L53.8356 43.7135L64.1671 43.72L64.1183 116.545L11.2607 116.509Z" fill="#E6E6E6"/>
<path d="M19.2602 34.4448L19.2559 41.2714" stroke="#447AC7" stroke-width="25" stroke-miterlimit="10"/>
<path d="M17.5039 33.9102L20.9633 33.9123" stroke="#447AC7" stroke-width="4" stroke-miterlimit="10"/>
<path d="M17.5039 33.1484L20.9633 33.1506" stroke="#447AC7" stroke-width="4" stroke-miterlimit="10"/>
<path d="M60.7065 47.8965H30.2833C29.2224 47.8965 28.3623 48.7566 28.3623 49.8175V112.992C28.3623 114.053 29.2224 114.914 30.2833 114.914H60.7065C61.7674 114.914 62.6275 114.053 62.6275 112.992V49.8175C62.6275 48.7566 61.7674 47.8965 60.7065 47.8965Z" fill="#E6E6E6"/>
<path opacity="0.5" d="M25.5328 65.2495H14.9866C14.24 65.2495 13.6348 65.8548 13.6348 66.6014V113.491C13.6348 114.238 14.24 114.843 14.9866 114.843H25.5328C26.2794 114.843 26.8847 114.238 26.8847 113.491V66.6014C26.8847 65.8548 26.2794 65.2495 25.5328 65.2495Z" fill="#999999"/>
<path opacity="0.5" d="M26.8827 70.3857H13.6328V114.842H26.8827V70.3857Z" fill="#447AC7"/>
<path d="M51.087 96.7817L51.1163 52.9839L27.1967 52.9688C23.4413 52.9688 20.1901 55.7874 19.8811 59.5265C19.7682 60.8443 20.0224 62.1677 20.6156 63.3499C21.2088 64.5321 22.1178 65.5269 23.2419 66.2241C23.5257 66.3963 23.7609 66.6382 23.9252 66.9267C24.0895 67.2153 24.1774 67.541 24.1807 67.873C24.1838 68.2094 24.1012 68.541 23.9405 68.8365C23.7798 69.1321 23.5465 69.3818 23.2625 69.562C22.2224 70.2013 21.3629 71.0958 20.7655 72.1605C20.1681 73.2252 19.8527 74.4249 19.8491 75.6458C19.8455 76.8666 20.1539 78.0682 20.745 79.1364C21.3361 80.2046 22.1904 81.1041 23.2267 81.7495C23.4506 81.8874 23.645 82.0683 23.7987 82.2817C23.9524 82.4951 24.0623 82.7369 24.1221 82.993C24.2126 83.3931 24.1756 83.8116 24.0164 84.1897C23.8572 84.5678 23.5837 84.8866 23.2343 85.1015C22.1089 85.7978 21.1984 86.7922 20.6036 87.9744C20.0089 89.1566 19.7532 90.4805 19.8649 91.7991C19.9476 92.7685 20.2305 93.7101 20.6957 94.5645C21.1609 95.419 21.7983 96.1676 22.5675 96.7632C22.8763 97.0076 23.0804 97.3604 23.1382 97.75C23.196 98.1395 23.1032 98.5364 22.8787 98.8599C21.503 100.851 19.8334 102.508 19.8291 107.579C19.8291 113.736 26.2914 114.843 32.886 114.85L51.0805 114.862C56.2603 114.862 57.4344 97.0451 57.4344 97.0451L51.087 96.7817Z" fill="#E6E6E6"/>
<path d="M57.4437 52.9761H32.9072V98.375H57.4437V52.9761Z" fill="#8FCF97"/>
<path d="M26.6143 65.2539C29.4253 65.2539 31.7041 62.9751 31.7041 60.1641C31.7041 57.353 29.4253 55.0742 26.6143 55.0742C23.8032 55.0742 21.5244 57.353 21.5244 60.1641C21.5244 62.9751 23.8032 65.2539 26.6143 65.2539Z" fill="#F2F2F2"/>
<path d="M26.6045 80.753C29.4156 80.753 31.6944 78.4742 31.6944 75.6631C31.6944 72.8521 29.4156 70.5732 26.6045 70.5732C23.7935 70.5732 21.5146 72.8521 21.5146 75.6631C21.5146 78.4742 23.7935 80.753 26.6045 80.753Z" fill="#F2F2F2"/>
<path d="M26.594 96.1161C29.3517 96.1161 31.5873 93.8805 31.5873 91.1228C31.5873 88.365 29.3517 86.1294 26.594 86.1294C23.8362 86.1294 21.6006 88.365 21.6006 91.1228C21.6006 93.8805 23.8362 96.1161 26.594 96.1161Z" fill="#447AC7"/>
<path d="M41.8543 100.941L41.8467 112.1L54.148 106.528L41.8543 100.941Z" fill="#F2F2F2"/>
<path d="M33.7088 112.094L33.7163 100.936L21.415 106.507L33.7088 112.094Z" fill="#F2F2F2"/>
<path opacity="0.5" d="M55.4311 96.1324L55.4355 89.7568L52.9627 89.7551L52.9583 96.1307L55.4311 96.1324Z" fill="#1A1A1A"/>
<path opacity="0.5" d="M52.9834 62.1963L52.9867 57.642L54.2236 55.8218L55.4595 57.6431L55.4562 62.1985L52.9834 62.1963Z" fill="#1A1A1A"/>
<path opacity="0.5" d="M54.2174 65.8953C54.9006 65.8953 55.4544 65.3415 55.4544 64.6583C55.4544 63.9752 54.9006 63.4214 54.2174 63.4214C53.5343 63.4214 52.9805 63.9752 52.9805 64.6583C52.9805 65.3415 53.5343 65.8953 54.2174 65.8953Z" fill="#1A1A1A"/>
<path opacity="0.5" d="M50.7006 75.7237L50.7109 60.9604L35.9476 60.9501L35.9373 75.7134L50.7006 75.7237Z" fill="#1A1A1A"/>
<path opacity="0.5" d="M50.6882 96.1404L50.6895 94.2964L35.9262 94.2861L35.9249 96.1301L50.6882 96.1404Z" fill="#1A1A1A"/>
<path opacity="0.8" d="M50.6872 96.1404L50.6885 94.2964L42.0373 94.2903L42.0361 96.1344L50.6872 96.1404Z" fill="#1A1A1A"/>
</svg>
