<svg width="890" height="198" viewBox="0 0 890 198" fill="none" xmlns="http://www.w3.org/2000/svg">
<path d="M790.948 160.604C825.807 160.604 854.065 132.346 854.065 97.4874C854.065 62.6289 825.807 34.3706 790.948 34.3706C756.09 34.3706 727.832 62.6289 727.832 97.4874C727.832 132.346 756.09 160.604 790.948 160.604Z" fill="#8FCF97"/>
<mask id="mask0" mask-type="alpha" maskUnits="userSpaceOnUse" x="692" y="0" width="198" height="198">
<circle cx="791" cy="99" r="99" fill="#C4C4C4"/>
</mask>
<g mask="url(#mask0)">
<path d="M785.973 -16.2838C787.977 -11.2999 792.788 18.3492 795.283 34.2857C796.323 40.9401 796.311 47.7166 795.248 54.3674L768.35 222.671C768.338 222.746 768.343 222.822 768.363 222.894C768.384 222.967 768.42 223.034 768.469 223.091C768.518 223.149 768.579 223.194 768.648 223.226C768.716 223.257 768.791 223.274 768.866 223.273H989.518C989.597 223.274 989.675 223.256 989.746 223.221C989.817 223.187 989.88 223.136 989.928 223.074C989.977 223.012 990.011 222.939 990.028 222.862C990.045 222.785 990.043 222.705 990.025 222.628L951.201 65.4356C947.421 51.6443 947.148 37.127 950.406 23.2032L959.643 -16.3596C959.661 -16.4361 959.661 -16.5157 959.644 -16.5923C959.626 -16.6689 959.592 -16.7407 959.543 -16.8022C959.494 -16.8637 959.432 -16.9134 959.361 -16.9476C959.291 -16.9819 959.213 -16.9997 959.134 -16.9999H786.464C786.378 -17.0015 786.293 -16.9818 786.216 -16.9423C786.14 -16.9029 786.074 -16.8451 786.025 -16.7741C785.977 -16.7031 785.947 -16.6211 785.938 -16.5356C785.928 -16.45 785.941 -16.3635 785.973 -16.2838Z" fill="#FFB18F"/>
<path d="M868.678 130.407C868.678 130.407 868.512 134.981 872.504 134.981" stroke="#8C6239" stroke-width="7" stroke-linecap="round" stroke-linejoin="round"/>
<path d="M754.553 261L770.955 145.326C770.955 145.326 792.861 152.75 840.598 152.11C888.336 151.469 941.25 145.326 941.25 145.326C941.25 145.326 953.855 148.064 955.922 167.224C957.989 186.384 957.677 261 957.677 261H754.553Z" fill="#333333"/>
<path d="M873.391 168.409C874.847 168.409 876.027 167.229 876.027 165.774C876.027 164.318 874.847 163.138 873.391 163.138C871.936 163.138 870.756 164.318 870.756 165.774C870.756 167.229 871.936 168.409 873.391 168.409Z" fill="#1A1A1A"/>
<path d="M861.118 155.49L886.379 261" stroke="#1A1A1A" stroke-width="2" stroke-miterlimit="10"/>
</g>
<path d="M32.077 99.7204C49.7926 99.7204 64.154 85.359 64.154 67.6434C64.154 49.9278 49.7926 35.5664 32.077 35.5664C14.3614 35.5664 0 49.9278 0 67.6434C0 85.359 14.3614 99.7204 32.077 99.7204Z" fill="#8FCF97"/>
<path d="M784.866 90.09L783.838 89.9358C780.662 89.4594 777.701 91.6481 777.225 94.8244L776.925 96.8258C776.448 100.002 778.637 102.963 781.813 103.44L782.841 103.594C786.017 104.07 788.978 101.881 789.454 98.7051L789.755 96.7037C790.231 93.5274 788.042 90.5664 784.866 90.09Z" fill="#F2F2F2"/>
<path d="M793.255 98.3204L793.32 98.3403C793.385 98.3581 793.44 98.3991 793.476 98.4553C793.512 98.5116 793.526 98.5792 793.515 98.6451C791.203 113.595 787.399 125.394 784.996 125.035C782.548 124.674 782.42 111.782 784.713 96.4914C787.005 81.2005 790.909 68.9185 793.356 69.2792C795.804 69.64 795.932 82.3802 793.681 97.552C793.669 97.6232 793.63 97.6868 793.571 97.7293C793.513 97.7718 793.44 97.7897 793.369 97.7793C793.297 97.7642 793.223 97.7783 793.161 97.8183C793.1 97.8584 793.057 97.9213 793.042 97.993C793.027 98.0648 793.041 98.1396 793.081 98.201C793.121 98.2624 793.184 98.3053 793.255 98.3204Z" fill="#F2F2F2"/>
<path d="M822.634 102.361L780.889 95.7646" stroke="#8B8BB5" stroke-miterlimit="10"/>
<path d="M48.7712 37.7527C46.5219 37.6571 44.3573 38.3786 42.3731 39.1001C41.967 39.3132 41.5448 39.4941 41.1105 39.6413C37.3225 41.4451 34.4364 44.8723 33.1846 48.985" stroke="#F2F2F2" stroke-width="9" stroke-linecap="round" stroke-linejoin="round"/>
<path d="M179.026 56.0935C178.128 52.0939 176.178 48.4066 173.378 45.4132C170.602 42.4116 167.116 40.1558 163.24 38.8528C161.053 38.1227 158.766 37.7339 156.46 37.7002" stroke="#F2F2F2" stroke-width="9" stroke-linecap="round" stroke-linejoin="round"/>
<path d="M237.508 109.991C236.642 116.665 233.034 123.159 227.082 126.947L226.541 127.488C224.196 128.751 221.851 130.194 219.145 130.555C211.389 131.637 203.993 131.457 196.057 130.013C195.876 130.013 195.876 129.653 195.696 129.653C194.794 129.292 194.072 129.112 193.17 128.57C192.81 128.39 192.629 128.57 192.269 128.39C187.939 126.225 184.693 122.798 182.167 118.65C181.987 118.469 182.167 118.108 181.987 117.928C180.221 114.86 179.439 111.324 179.747 107.798" stroke="#F2F2F2" stroke-width="9" stroke-linecap="round" stroke-linejoin="round"/>
<path d="M289.706 59.7846C289.674 58.9422 289.854 57.8599 289.674 56.958C288.592 52.6289 287.329 48.6605 284.082 45.4137C281.557 43.0688 278.851 40.7238 275.785 39.6415C267.307 36.3947 257.386 36.3947 249.269 40.7238C248.186 41.9865 246.743 42.3472 245.661 43.4295C242.234 46.6764 239.167 50.6447 238.446 55.515C238.266 56.5973 238.446 57.8599 238.141 58.9891" stroke="#F2F2F2" stroke-width="9" stroke-linecap="round" stroke-linejoin="round"/>
<path d="M345.415 162.355C344.874 168.432 340.906 173.303 335.855 176.91C331.887 179.796 327.558 180.337 323.048 181.239C321.081 181.57 319.079 181.63 317.096 181.42C316.013 181.42 314.751 181.6 313.668 181.42C310.963 181.059 308.437 180.698 305.912 179.796C297.434 176.73 289.858 168.793 290.183 159.435" stroke="#F2F2F2" stroke-width="9" stroke-linecap="round" stroke-linejoin="round"/>
<path d="M400.247 60.024C399.998 54.82 398.207 49.7838 394.769 45.8245C391.307 41.8495 386.649 39.1049 381.495 38.0032C376.464 36.9209 370.971 36.9732 365.908 37.8138C360.904 38.6436 355.935 40.7269 352.509 44.5907C349.304 48.2073 346.728 52.4084 346.221 57.3111C346.16 57.8947 346.129 58.4812 346.129 59.068" stroke="#F2F2F2" stroke-width="9" stroke-linecap="round" stroke-linejoin="round"/>
<path d="M459.754 87.2322C459.594 90.2265 459.236 93.2533 457.905 95.9806C457.737 96.3234 457.555 96.6553 457.364 96.9836C457.173 97.3119 457.229 97.4652 457.135 97.7772C456.955 98.3454 456.413 98.9677 456.074 99.4566C455.337 100.521 454.511 101.521 453.607 102.447C449.624 106.517 444.427 108.517 438.873 109.34C435.574 109.828 432.228 109.931 428.898 109.848C425.635 109.769 422.224 109.754 419.037 108.993C413.369 107.637 408.378 104.845 404.762 100.218C400.974 95.3674 400.164 89.2597 400.072 83.2837C400.059 82.5622 400.056 81.8407 400.054 81.1191" stroke="#F2F2F2" stroke-width="9" stroke-linecap="round" stroke-linejoin="round"/>
<path d="M513.896 69.1318C513.896 62.7301 514.256 56.4168 511.731 50.4643C510.288 46.6763 507.402 44.1509 503.975 41.6256C496.94 36.7554 489.003 36.3946 481.066 37.4769C474.392 38.3788 468.62 41.4452 464.291 46.8566C464.052 47.3182 463.748 47.7433 463.389 48.1193C461.044 51.7269 460.142 55.5149 459.962 59.7286" stroke="#F2F2F2" stroke-width="9" stroke-linecap="round" stroke-linejoin="round"/>
<path d="M570.059 160.718C570.348 164.103 567.822 166.989 566.74 170.056C564.395 173.844 560.968 176.73 556.999 178.714C553.753 180.157 550.145 181.059 546.537 181.059C539.142 181.239 531.385 182.141 524.711 177.632C524.351 177.271 523.99 177.091 523.449 176.73C520.563 174.565 518.398 172.22 516.594 169.154C514.791 166.268 514.791 162.841 514.791 159.659" stroke="#F2F2F2" stroke-width="9" stroke-linecap="round" stroke-linejoin="round"/>
<path d="M632.074 92.0688C631.495 95.7396 629.51 98.4453 627.165 101.331C625.001 103.857 622.295 105.66 619.409 107.284C617.064 108.727 614.539 109.268 612.013 109.448C603.355 109.99 594.697 108.005 585.858 110.35C584.956 110.711 584.055 111.072 583.153 111.252C582.792 111.433 582.431 111.793 581.89 111.974C581.71 111.974 581.349 111.974 581.169 112.154C575.216 115.762 571.067 121.534 570.346 128.208" stroke="#F2F2F2" stroke-width="9" stroke-linecap="round" stroke-linejoin="round"/>
<path d="M649.839 34.0874C645.722 34.9799 641.956 37.055 639.002 40.058C635.885 43.2633 633.641 47.3273 632.836 51.7304C632.367 54.3116 632.284 56.9506 632.387 59.5661" stroke="#F2F2F2" stroke-width="9" stroke-linecap="round" stroke-linejoin="round"/>
<path d="M691.377 87.3176C691.357 83.2609 691.268 79.2005 691.429 75.1492C691.584 71.1934 691.736 67.2431 691.703 63.282C691.671 59.3605 691.523 55.3777 690.893 51.4995C690.402 48.48 689.098 45.6318 687.286 43.1804C685.192 40.3726 682.502 38.0632 679.41 36.418" stroke="#F2F2F2" stroke-width="9" stroke-linecap="round" stroke-linejoin="round"/>
<path d="M752.322 127.64C752.529 133.231 752.349 161.217 750.725 166.809C750.004 169.154 748.38 170.958 746.757 172.942C745.494 174.385 743.871 175.467 742.247 176.73C742.067 176.91 741.887 177.271 741.706 177.452C740.624 178.173 739.722 178.895 738.64 179.255C734.311 180.698 729.982 181.24 725.472 181.781C722.586 181.961 719.88 182.141 716.994 181.781C714.649 181.6 712.665 181.24 710.32 180.879C709.872 180.653 709.379 180.53 708.877 180.518C706.712 179.797 704.548 179.075 702.564 177.993C700.94 177.091 699.678 176.009 698.235 174.926C696.251 173.122 694.627 171.138 693.545 168.793C690.478 162.119 691.2 154.904 691.2 147.911" stroke="#F2F2F2" stroke-width="9" stroke-linecap="round" stroke-linejoin="round"/>
<path d="M778.742 95.4851C764.584 93.7101 752.077 104.748 752.077 119.016V157.217C752.077 160.331 751.464 163.415 750.272 166.293C749.08 169.171 747.333 171.785 745.131 173.988C742.929 176.19 740.314 177.937 737.436 179.129C734.559 180.321 731.475 180.935 728.36 180.935H715.108C708.818 180.935 702.786 178.436 698.339 173.989C693.892 169.542 691.393 163.51 691.393 157.22V57.2644C691.393 50.9747 688.894 44.9428 684.446 40.4955C679.998 36.0482 673.966 33.5498 667.677 33.5498H656.291C650.002 33.5498 643.97 36.0483 639.522 40.4956C635.075 44.943 632.577 50.9749 632.577 57.2644V85.584C632.577 91.8737 630.078 97.9058 625.631 102.353C621.184 106.801 615.152 109.3 608.862 109.3H593.741C587.453 109.3 581.422 111.798 576.975 116.244C572.527 120.689 570.028 126.719 570.026 133.008V157.217C570.027 160.331 569.414 163.415 568.222 166.293C567.031 169.17 565.284 171.785 563.082 173.988C560.879 176.19 558.265 177.937 555.388 179.129C552.51 180.321 549.426 180.935 546.312 180.935H537.726C531.436 180.935 525.404 178.436 520.957 173.989C516.509 169.542 514.011 163.51 514.011 157.22V61.4077C514.011 55.118 511.513 49.086 507.065 44.6383C502.618 40.1907 496.586 37.6918 490.296 37.6913H483.579C477.289 37.6913 471.257 40.19 466.809 44.6377C462.361 49.0854 459.863 55.1177 459.863 61.4077V85.5786C459.863 91.8683 457.364 97.9004 452.917 102.348C448.47 106.796 442.438 109.295 436.148 109.295H423.828C417.539 109.295 411.507 106.796 407.059 102.348C402.612 97.9004 400.114 91.8683 400.114 85.5786V61.4077C400.114 55.118 397.615 49.086 393.168 44.6383C388.721 40.1907 382.689 37.6918 376.399 37.6913H369.68C363.39 37.6918 357.358 40.1907 352.911 44.6383C348.464 49.086 345.965 55.118 345.965 61.4077V157.217C345.966 160.331 345.353 163.415 344.161 166.293C342.97 169.17 341.223 171.785 339.021 173.988C336.819 176.19 334.204 177.937 331.327 179.129C328.449 180.321 325.365 180.935 322.251 180.935H313.648C310.534 180.935 307.449 180.322 304.571 179.13C301.693 177.939 299.078 176.191 296.876 173.989C294.673 171.786 292.926 169.172 291.734 166.294C290.542 163.416 289.928 160.331 289.929 157.217V61.4077C289.929 55.118 287.43 49.086 282.983 44.6383C278.535 40.1907 272.504 37.6918 266.214 37.6913H261.344C255.054 37.6918 249.022 40.1906 244.574 44.6382C240.127 49.0858 237.628 55.1179 237.627 61.4077V107.24C237.627 110.355 237.014 113.438 235.822 116.316C234.63 119.193 232.884 121.807 230.681 124.009C228.479 126.211 225.865 127.958 222.988 129.15C220.111 130.342 217.027 130.955 213.913 130.955H203.27C200.156 130.955 197.072 130.342 194.195 129.15C191.317 127.959 188.703 126.212 186.5 124.01C184.298 121.808 182.551 119.193 181.359 116.316C180.167 113.439 179.554 110.355 179.554 107.24V61.4077C179.554 58.2932 178.941 55.2092 177.749 52.3318C176.557 49.4544 174.81 46.84 172.608 44.6377C170.405 42.4354 167.791 40.6885 164.913 39.4966C162.036 38.3048 158.952 37.6913 155.838 37.6913H50.6382C32.0013 37.6913 32.0464 55.1539 32.0464 55.1539V65.8523" stroke="#447AC7" stroke-width="3" stroke-miterlimit="10"/>
<path d="M18.7358 193.855L18.8188 68.6606L46.2943 68.6787L46.2889 76.6298L89.5711 76.6587L89.5747 72.7336L106.765 72.7444L106.684 193.915L18.7358 193.855Z" fill="#E6E6E6"/>
<path d="M32.0463 57.311L32.0391 68.6696" stroke="#447AC7" stroke-width="25" stroke-miterlimit="10"/>
<path d="M29.124 56.4219L34.8799 56.4255" stroke="#447AC7" stroke-width="4" stroke-miterlimit="10"/>
<path d="M29.124 55.1543L34.8799 55.1579" stroke="#447AC7" stroke-width="4" stroke-miterlimit="10"/>
<path d="M101.008 79.6929H50.3877C48.6225 79.6929 47.1914 81.1239 47.1914 82.8892V188.004C47.1914 189.769 48.6225 191.2 50.3877 191.2H101.008C102.773 191.2 104.204 189.769 104.204 188.004V82.8892C104.204 81.1239 102.773 79.6929 101.008 79.6929Z" fill="#E6E6E6"/>
<path opacity="0.5" d="M42.4832 108.566H24.9359C23.6936 108.566 22.6865 109.573 22.6865 110.816V188.834C22.6865 190.076 23.6936 191.083 24.9359 191.083H42.4832C43.7255 191.083 44.7326 190.076 44.7326 188.834V110.816C44.7326 109.573 43.7255 108.566 42.4832 108.566Z" fill="#999999"/>
<path opacity="0.5" d="M44.7287 117.113H22.6826V191.081H44.7287V117.113Z" fill="#447AC7"/>
<path d="M85.0021 161.032L85.0508 88.1581L45.2518 88.1328C39.0034 88.1328 33.5938 92.8227 33.0797 99.044C32.8918 101.237 33.3148 103.439 34.3018 105.406C35.2888 107.373 36.8013 109.028 38.6715 110.188C39.1438 110.475 39.5351 110.877 39.8085 111.357C40.0818 111.837 40.2282 112.379 40.2336 112.931C40.2389 113.491 40.1013 114.043 39.834 114.535C39.5667 115.026 39.1784 115.442 38.7058 115.742C36.9753 116.806 35.5452 118.294 34.5512 120.065C33.5573 121.837 33.0324 123.833 33.0265 125.864C33.0205 127.896 33.5336 129.895 34.5172 131.672C35.5007 133.45 36.922 134.946 38.6463 136.02C39.0189 136.25 39.3424 136.551 39.5981 136.906C39.8538 137.261 40.0367 137.663 40.1362 138.089C40.2867 138.755 40.2252 139.451 39.9603 140.08C39.6954 140.709 39.2403 141.24 38.6589 141.597C36.7864 142.756 35.2714 144.411 34.2819 146.378C33.2923 148.345 32.8668 150.547 33.0527 152.741C33.1904 154.354 33.6611 155.921 34.4351 157.343C35.2091 158.764 36.2696 160.01 37.5496 161.001C38.0634 161.408 38.4029 161.995 38.4991 162.643C38.5952 163.291 38.4408 163.951 38.0673 164.489C35.7782 167.803 33.0004 170.559 32.9932 178.997C32.9932 189.241 43.7456 191.083 54.7181 191.096L84.9913 191.115C93.6099 191.115 95.5634 161.47 95.5634 161.47L85.0021 161.032Z" fill="#E6E6E6"/>
<path d="M95.5778 88.1455H54.7524V163.683H95.5778V88.1455Z" fill="#8FCF97"/>
<path d="M44.2833 108.573C48.9605 108.573 52.7521 104.782 52.7521 100.105C52.7521 95.4274 48.9605 91.6357 44.2833 91.6357C39.6061 91.6357 35.8145 95.4274 35.8145 100.105C35.8145 104.782 39.6061 108.573 44.2833 108.573Z" fill="#F2F2F2"/>
<path d="M44.2652 134.362C48.9424 134.362 52.7341 130.571 52.7341 125.894C52.7341 121.216 48.9424 117.425 44.2652 117.425C39.588 117.425 35.7964 121.216 35.7964 125.894C35.7964 130.571 39.588 134.362 44.2652 134.362Z" fill="#F2F2F2"/>
<path d="M44.2487 159.924C48.8373 159.924 52.557 156.204 52.557 151.616C52.557 147.027 48.8373 143.308 44.2487 143.308C39.6602 143.308 35.9404 147.027 35.9404 151.616C35.9404 156.204 39.6602 159.924 44.2487 159.924Z" fill="#447AC7"/>
<path d="M69.6396 167.953L69.627 186.519L90.0947 177.249L69.6396 167.953Z" fill="#F2F2F2"/>
<path d="M56.0874 186.509L56.1 167.944L35.6323 177.214L56.0874 186.509Z" fill="#F2F2F2"/>
<path opacity="0.5" d="M92.2309 159.951L92.2383 149.343L88.1238 149.34L88.1164 159.949L92.2309 159.951Z" fill="#1A1A1A"/>
<path opacity="0.5" d="M88.1572 103.487L88.1626 95.909L90.2208 92.8804L92.2771 95.9108L92.2717 103.49L88.1572 103.487Z" fill="#1A1A1A"/>
<path opacity="0.5" d="M90.2115 109.641C91.3481 109.641 92.2696 108.72 92.2696 107.583C92.2696 106.446 91.3481 105.525 90.2115 105.525C89.0748 105.525 88.1533 106.446 88.1533 107.583C88.1533 108.72 89.0748 109.641 90.2115 109.641Z" fill="#1A1A1A"/>
<path opacity="0.5" d="M84.3593 125.994L84.3765 101.43L59.8123 101.413L59.7952 125.977L84.3593 125.994Z" fill="#1A1A1A"/>
<path opacity="0.5" d="M84.3382 159.965L84.3403 156.896L59.7762 156.879L59.774 159.948L84.3382 159.965Z" fill="#1A1A1A"/>
<path opacity="0.8" d="M84.3362 159.965L84.3384 156.896L69.9441 156.886L69.9419 159.955L84.3362 159.965Z" fill="#1A1A1A"/>
</svg>
