<svg width="1260" height="446" viewBox="0 0 1260 446" fill="none" xmlns="http://www.w3.org/2000/svg">
<rect width="1260" height="446" fill="#001E46"/>
<g clip-path="url(#clip0)">
<path d="M1018.55 427.509C1131.01 427.509 1222.17 336.346 1222.17 223.892C1222.17 111.437 1131.01 20.2749 1018.55 20.2749C906.098 20.2749 814.936 111.437 814.936 223.892C814.936 336.346 906.098 427.509 1018.55 427.509Z" fill="#447AC7"/>
<path d="M1103.48 163.446L1107.02 152.621L1112.64 139.348L1115.82 115.96L1100.31 79.5977L915.571 83.3262L879.752 152.621C879.752 152.621 917.261 167.37 1010.06 163.446" fill="#333333"/>
<path d="M1103.48 163.446L1107.02 152.621L1112.64 139.348L1115.82 115.96L1100.31 79.5977L915.571 83.3262L879.752 152.621C879.752 152.621 917.261 167.37 1010.06 163.446" stroke="#999999" stroke-miterlimit="10"/>
<path d="M881.608 38.4316C884.579 45.8129 891.71 89.7528 895.403 113.36C896.94 123.222 896.918 133.265 895.336 143.121L855.486 392.516C855.469 392.626 855.475 392.738 855.506 392.846C855.536 392.953 855.589 393.053 855.662 393.137C855.734 393.222 855.824 393.29 855.926 393.337C856.027 393.383 856.137 393.408 856.249 393.408H1183.22C1183.72 393.408 1139.85 393.898 1139.73 393.408C1139.73 393.408 1177.1 307.329 1153.66 255.665C1130.22 204 1102.87 159.521 1102.87 159.521C1097.27 139.085 1096.86 117.574 1101.69 96.9423L1138.93 38.3156C1138.96 38.2024 1138.96 38.085 1138.93 37.9719C1138.91 37.8589 1138.85 37.7531 1138.78 37.6624C1138.71 37.5717 1138.62 37.4984 1138.51 37.4478C1138.41 37.3972 1138.29 37.3707 1138.18 37.3701H882.326C882.2 37.3696 882.075 37.4003 881.963 37.4595C881.851 37.5186 881.755 37.6045 881.684 37.7094C881.613 37.8143 881.569 37.935 881.556 38.061C881.543 38.1869 881.561 38.3142 881.608 38.4316Z" fill="#FABBA0"/>
<mask id="mask0" mask-type="alpha" maskUnits="userSpaceOnUse" x="855" y="37" width="329" height="357">
<path d="M881.608 38.4316C884.579 45.8129 891.71 89.7528 895.403 113.36C896.94 123.222 896.918 133.265 895.336 143.121L855.486 392.515C855.469 392.626 855.475 392.738 855.506 392.846C855.536 392.953 855.589 393.053 855.662 393.137C855.734 393.222 855.824 393.29 855.926 393.337C856.027 393.383 856.137 393.408 856.249 393.407H1183.22C1183.72 393.407 1139.85 393.898 1139.73 393.407C1139.73 393.407 1177.1 307.329 1153.66 255.665C1130.22 204 1102.87 159.521 1102.87 159.521C1097.27 139.085 1096.86 117.574 1101.69 96.9423L1138.93 38.3156C1138.96 38.2024 1138.96 38.085 1138.93 37.9719C1138.91 37.8589 1138.85 37.7531 1138.78 37.6624C1138.71 37.5717 1138.62 37.4984 1138.51 37.4478C1138.41 37.3972 1138.29 37.3707 1138.18 37.3701H882.326C882.2 37.3696 882.075 37.4003 881.963 37.4595C881.851 37.5186 881.755 37.6045 881.684 37.7094C881.613 37.8143 881.569 37.935 881.556 38.061C881.543 38.1869 881.561 38.3142 881.608 38.4316Z" fill="#FABBA0"/>
</mask>
<g mask="url(#mask0)">
<path d="M861.939 166.108C861.939 166.108 998.83 109.083 1055.56 109.083C1112.29 109.083 1108.52 148.295 1108.52 148.295L1131.05 87.862L1113.38 49.6353C1113.38 49.6353 949.208 46.9058 945.391 46.9058C941.573 46.9058 869.022 95.89 869.022 95.89L861.939 166.108Z" fill="#F58D6E"/>
</g>
<path d="M843.939 460.094L870.766 270.887C870.766 270.887 906.598 283.032 984.674 281.983C1062.75 280.935 1149.29 224.668 1149.29 224.668C1149.29 224.668 1169.91 275.369 1173.29 306.732C1176.67 338.095 1176.16 460.116 1176.16 460.116L843.939 460.094Z" fill="#333333"/>
<path d="M959.19 281.373L982.788 401.248H1010.26L1033.32 451.593" stroke="#1A1A1A" stroke-width="3" stroke-miterlimit="10"/>
<path d="M972.24 296.746C974.747 296.746 976.78 294.713 976.78 292.206C976.78 289.698 974.747 287.666 972.24 287.666C969.732 287.666 967.699 289.698 967.699 292.206C967.699 294.713 969.732 296.746 972.24 296.746Z" fill="#1A1A1A"/>
<path d="M861.11 -20.32L879.753 152.621C879.753 152.621 972.717 83.4017 1053.17 83.4017C1133.62 83.4017 1107.02 152.621 1107.02 152.621L1174.33 -18.2327L914.59 -72.6982L861.11 -20.32Z" fill="#F2F2F2"/>
<path d="M979.005 215.681C979.005 215.681 978.76 222.46 984.674 222.46" stroke="#8C6239" stroke-width="7" stroke-linecap="round" stroke-linejoin="round"/>
<path d="M1034.49 200.067C1045.8 200.067 1054.96 190.903 1054.96 179.6C1054.96 168.296 1045.8 159.133 1034.49 159.133C1023.19 159.133 1014.03 168.296 1014.03 179.6C1014.03 190.903 1023.19 200.067 1034.49 200.067Z" fill="#CCCCCC"/>
<path d="M1032.61 161.599L1027.89 162.75L1030.98 165.167L1032.61 161.599Z" fill="#1B1464"/>
<path d="M1034.49 193.189C1042 193.189 1048.08 187.105 1048.08 179.599C1048.08 172.094 1042 166.01 1034.49 166.01C1026.99 166.01 1020.9 172.094 1020.9 179.599C1020.9 187.105 1026.99 193.189 1034.49 193.189Z" fill="#E6E6E6"/>
<path d="M1037.41 170.194L1041.5 172.678L1041.04 168.838L1037.41 170.194Z" fill="#1B1464"/>
<path d="M1069.02 265.379C1067.51 259.212 1061.29 255.432 1055.13 256.935C1048.96 258.439 1045.18 264.657 1046.68 270.824L1049.72 283.277C1051.22 289.444 1057.44 293.225 1063.61 291.721C1069.77 290.218 1073.56 284 1072.05 277.833L1069.02 265.379Z" fill="black"/>
<path d="M1044.79 163.44L1044.12 163.032L1041.96 166.588L1042.63 166.996L1044.79 163.44Z" fill="#1B1464"/>
<path d="M1039.24 362.344L1015.44 264.701L1036.87 259.478L1038.39 265.677L1072.14 257.453L1071.4 254.389L1084.81 251.125L1107.83 345.627L1039.24 362.344Z" fill="#E6E6E6"/>
<path d="M1023.66 253.578L1025.76 262.185" stroke="#F2F2F2" stroke-width="11" stroke-miterlimit="10"/>
<path d="M1021.15 253.189L1025.64 252.097" stroke="#F2F2F2" stroke-miterlimit="10"/>
<path d="M1020.91 252.204L1025.4 251.106" stroke="#F2F2F2" stroke-miterlimit="10"/>
<path d="M1081.69 257.613L1042.2 267.238C1040.83 267.574 1039.99 268.961 1040.32 270.337L1060.31 352.32C1060.64 353.696 1062.03 354.539 1063.4 354.204L1102.89 344.579C1104.26 344.243 1105.11 342.856 1104.77 341.48L1084.79 259.498C1084.45 258.121 1083.06 257.278 1081.69 257.613Z" fill="#E6E6E6"/>
<path opacity="0.5" d="M1041.54 291.279L1027.86 294.615C1026.89 294.851 1026.3 295.829 1026.53 296.798L1041.37 357.643C1041.6 358.613 1042.58 359.207 1043.55 358.971L1057.23 355.635C1058.2 355.398 1058.8 354.421 1058.56 353.452L1043.73 292.606C1043.49 291.637 1042.51 291.043 1041.54 291.279Z" fill="#999999"/>
<path opacity="0.5" d="M1044.92 297.518L1027.73 301.709L1041.79 359.4L1058.99 355.209L1044.92 297.518Z" fill="#447AC7"/>
<path d="M1084.66 324.117L1070.83 267.274L1039.79 274.856C1034.92 276.047 1031.59 280.735 1032.38 285.685C1032.65 287.432 1033.4 289.069 1034.54 290.416C1035.69 291.762 1037.18 292.764 1038.86 293.312C1039.29 293.446 1039.67 293.685 1039.97 294.007C1040.28 294.329 1040.49 294.724 1040.6 295.154C1040.71 295.589 1040.71 296.045 1040.6 296.479C1040.48 296.912 1040.26 297.31 1039.95 297.634C1038.8 298.793 1037.97 300.227 1037.53 301.799C1037.09 303.37 1037.06 305.028 1037.44 306.614C1037.83 308.2 1038.61 309.662 1039.71 310.861C1040.82 312.061 1042.21 312.957 1043.76 313.467C1044.19 313.602 1044.58 313.845 1044.89 314.173C1045.2 314.502 1045.41 314.904 1045.52 315.341C1045.63 315.778 1045.62 316.235 1045.5 316.669C1045.38 317.102 1045.15 317.497 1044.83 317.815C1043.59 319.077 1042.73 320.657 1042.34 322.38C1041.94 324.102 1042.04 325.9 1042.6 327.574C1043.01 328.802 1043.67 329.932 1044.54 330.894C1045.4 331.856 1046.46 332.628 1047.64 333.162C1048.12 333.381 1048.5 333.774 1048.69 334.261C1048.89 334.749 1048.9 335.293 1048.71 335.784C1047.56 338.804 1045.91 341.484 1047.52 348.063C1049.46 356.055 1058.22 355.444 1066.76 353.357L1090.38 347.603C1097.1 345.967 1092.97 322.471 1092.97 322.471L1084.66 324.117Z" fill="#E6E6E6"/>
<path d="M1079.05 265.241L1047.21 273.002L1061.57 331.915L1093.41 324.154L1079.05 265.241Z" fill="#8FCF97"/>
<path d="M1041.29 291.162C1045.05 291.162 1048.09 288.119 1048.09 284.365C1048.09 280.611 1045.05 277.568 1041.29 277.568C1037.54 277.568 1034.5 280.611 1034.5 284.365C1034.5 288.119 1037.54 291.162 1041.29 291.162Z" fill="#F2F2F2"/>
<path d="M1046.2 311.277C1049.95 311.277 1052.99 308.234 1052.99 304.48C1052.99 300.726 1049.95 297.683 1046.2 297.683C1042.44 297.683 1039.4 300.726 1039.4 304.48C1039.4 308.234 1042.44 311.277 1046.2 311.277Z" fill="#F2F2F2"/>
<path d="M1051.08 331.213C1054.77 331.213 1057.75 328.228 1057.75 324.545C1057.75 320.863 1054.77 317.877 1051.08 317.877C1047.4 317.877 1044.42 320.863 1044.42 324.545C1044.42 328.228 1047.4 331.213 1051.08 331.213Z" fill="#8B8BB5" stroke="white" stroke-width="2" stroke-miterlimit="10"/>
<path d="M1074 332.444L1077.53 346.925L1091.72 335.793L1074 332.444Z" fill="#F2F2F2"/>
<path d="M1066.97 349.499L1063.44 335.017L1049.24 346.145L1066.97 349.499Z" fill="#F2F2F2"/>
<path opacity="0.5" d="M1090.12 321.917L1088.11 313.646L1084.9 314.428L1086.91 322.7L1090.12 321.917Z" fill="#1A1A1A"/>
<path opacity="0.5" d="M1076.15 278.643L1074.71 272.733L1075.74 269.977L1077.92 271.948L1079.36 277.862L1076.15 278.643Z" fill="#1A1A1A"/>
<path opacity="0.5" d="M1078.53 283.094C1079.45 283.094 1080.19 282.355 1080.19 281.444C1080.19 280.532 1079.45 279.793 1078.53 279.793C1077.62 279.793 1076.88 280.532 1076.88 281.444C1076.88 282.355 1077.62 283.094 1078.53 283.094Z" fill="#1A1A1A"/>
<path opacity="0.5" d="M1077.51 296.94L1072.84 277.784L1053.68 282.454L1058.35 301.61L1077.51 296.94Z" fill="#1A1A1A"/>
<path opacity="0.5" d="M1083.97 323.437L1083.39 321.045L1064.23 325.715L1064.81 328.107L1083.97 323.437Z" fill="#1A1A1A"/>
<path opacity="0.8" d="M1083.97 323.438L1083.39 321.046L1072.16 323.783L1072.74 326.175L1083.97 323.438Z" fill="#1A1A1A"/>
<path d="M1040.83 179.276C1042.33 176.807 1041.54 173.589 1039.08 172.089C1036.61 170.588 1033.39 171.373 1031.89 173.842L1028.21 179.902C1026.7 182.37 1027.49 185.588 1029.96 187.088C1032.42 188.589 1035.64 187.804 1037.14 185.335L1040.83 179.276Z" fill="#F2F2F2"/>
<path d="M1023.15 251.655L1021.92 246.682C1021.45 244.773 1021.71 242.757 1022.64 241.026C1023.58 239.295 1025.12 237.973 1026.97 237.316L1051.95 228.468C1053.91 227.772 1055.53 226.329 1056.44 224.452C1057.35 222.575 1057.48 220.416 1056.81 218.442C1056.14 216.467 1054.71 214.836 1052.85 213.902C1050.98 212.969 1048.83 212.808 1046.84 213.455L1015.85 223.651C1013.78 224.333 1011.52 224.168 1009.56 223.193C1007.61 222.217 1006.12 220.509 1005.42 218.442V218.442C1004.75 216.461 1004.89 214.296 1005.81 212.418C1006.73 210.54 1008.35 209.102 1010.33 208.415L1018.54 205.543C1020.45 204.875 1022.04 203.499 1022.97 201.699L1030.24 187.627" stroke="#F2F2F2" stroke-width="2" stroke-miterlimit="10"/>
<path d="M862.582 -63.8717C862.582 -63.8717 820.39 181.428 847.864 192.239C875.338 203.05 1017.09 62.886 1053.17 62.7968L1064.37 26.1578L895.403 92.7679L896.928 -65.8252L862.582 -63.8717Z" fill="#FABBA0"/>
<mask id="mask1" mask-type="alpha" maskUnits="userSpaceOnUse" x="838" y="-66" width="227" height="259">
<path d="M862.582 -63.8717C862.582 -63.8717 820.39 181.428 847.864 192.239C875.338 203.05 1017.09 62.886 1053.17 62.7968L1064.37 26.1578L895.403 92.7679L896.928 -65.8252L862.582 -63.8717Z" fill="#FABBA0"/>
</mask>
<g mask="url(#mask1)">
<path d="M834.127 195.674C834.127 195.674 831.183 173.101 852.77 173.101C874.356 173.101 1055.9 41.6162 1055.9 41.6162C1055.9 41.6162 1065.71 71.0522 1065.71 72.524C1065.71 73.9958 852.279 230.016 852.279 230.016L834.127 195.674Z" fill="#F58D6E"/>
</g>
<path d="M1047.58 45.7952C1047.15 43.1649 1047.32 40.4712 1048.08 37.9166C1048.84 35.3619 1050.17 33.0128 1051.97 31.0457C1053.77 29.0786 1055.99 27.5446 1058.46 26.559C1060.94 25.5733 1063.61 25.1617 1066.27 25.3551C1088.69 26.9963 1120.12 32.4955 1120.12 50.4426C1120.12 55.6429 1129.15 65.7582 1123.84 72.0334C1118.45 78.4112 1122.37 82.5813 1120.41 88.4685C1118.45 94.3557 1113.05 92.8839 1115.26 100.957C1117.87 110.541 1105.45 112.419 1100.74 107.022C1093.22 98.4366 1072.07 81.1541 1059.77 71.3421C1053.84 66.6095 1049.88 59.8433 1048.65 52.3559L1047.58 45.7952Z" fill="#FABBA0"/>
<path d="M1122.37 -58.105L1184.19 179.359L1126.3 324.585L1145.24 341.944C1145.24 341.944 1237.18 214.682 1240.12 184.265C1243.06 153.848 1193.77 -91.9653 1193.77 -91.9653L1122.37 -58.105Z" fill="#FABBA0"/>
<path d="M1110.15 310.732L1156.62 352.674" stroke="#1A1A1A" stroke-width="3" stroke-miterlimit="10"/>
<path d="M1049.5 33.2894C1049.5 33.2894 1051.16 18.0941 1073.76 18.0941C1096.37 18.0941 1112.75 12.2515 1109.05 20.0119C1105.36 27.7723 1059.55 38.0303 1059.55 38.0303L1049.5 33.2894Z" fill="#FABBA0"/>
</g>
<defs>
<clipPath id="clip0">
<rect width="446" height="446" fill="white" transform="translate(799)"/>
</clipPath>
</defs>
</svg>
