<svg width="375" height="227" viewBox="0 0 375 227" fill="none" xmlns="http://www.w3.org/2000/svg">
<g clip-path="url(#clip0)">
<path d="M175.5 372C323.788 372 444 251.788 444 103.5C444 -44.7884 323.788 -165 175.5 -165C27.2115 -165 -93 -44.7884 -93 103.5C-93 251.788 27.2115 372 175.5 372Z" fill="#447AC7"/>
<path d="M225.972 67.577L228.065 61.1633L231.394 53.2987L233.281 39.4406L224.09 17.895L114.628 20.1043L93.4053 61.1633C93.4053 61.1633 115.63 69.9026 170.619 67.577" fill="#333333"/>
<path d="M225.972 67.577L228.065 61.1633L231.394 53.2987L233.281 39.4406L224.09 17.895L114.628 20.1043L93.4053 61.1633C93.4053 61.1633 115.63 69.9026 170.619 67.577" stroke="#999999" stroke-miterlimit="10"/>
<path d="M94.5051 -6.49604C96.2652 -2.12244 100.491 23.9131 102.679 37.9007C103.59 43.7446 103.576 49.6954 102.639 55.5351L79.0271 203.307C79.0168 203.373 79.0207 203.439 79.0387 203.503C79.0567 203.567 79.0882 203.626 79.1312 203.676C79.1741 203.726 79.2275 203.766 79.2875 203.794C79.3476 203.822 79.4129 203.836 79.479 203.836H273.215C273.511 203.836 247.518 204.127 247.446 203.836C247.446 203.836 269.589 152.833 255.702 122.22C241.815 91.6075 225.608 65.2522 225.608 65.2522C222.289 53.1438 222.048 40.3981 224.907 28.173L246.976 -6.56475C246.991 -6.63183 246.991 -6.70142 246.975 -6.7684C246.96 -6.83539 246.93 -6.89806 246.887 -6.95181C246.844 -7.00556 246.79 -7.04902 246.728 -7.07899C246.666 -7.10896 246.598 -7.12468 246.529 -7.125H94.9306C94.8556 -7.12529 94.7816 -7.10711 94.7153 -7.07205C94.6489 -7.03699 94.5922 -6.98614 94.5502 -6.92398C94.5081 -6.86182 94.482 -6.79027 94.4742 -6.71564C94.4663 -6.64101 94.477 -6.56559 94.5051 -6.49604Z" fill="#FABBA0"/>
<mask id="mask0" mask-type="alpha" maskUnits="userSpaceOnUse" x="79" y="-8" width="195" height="212">
<path d="M94.5051 -6.49604C96.2652 -2.12244 100.491 23.9131 102.679 37.9007C103.59 43.7446 103.576 49.6954 102.639 55.5351L79.0271 203.307C79.0168 203.373 79.0207 203.439 79.0387 203.503C79.0567 203.567 79.0882 203.626 79.1312 203.676C79.1741 203.726 79.2275 203.766 79.2875 203.794C79.3476 203.822 79.4129 203.836 79.479 203.836H273.215C273.511 203.836 247.518 204.127 247.446 203.836C247.446 203.836 269.589 152.833 255.702 122.22C241.815 91.6075 225.608 65.2522 225.608 65.2522C222.289 53.1438 222.048 40.3981 224.907 28.173L246.976 -6.56475C246.991 -6.63183 246.991 -6.70142 246.975 -6.7684C246.96 -6.83539 246.93 -6.89806 246.887 -6.95181C246.844 -7.00556 246.79 -7.04902 246.728 -7.07899C246.666 -7.10896 246.598 -7.12468 246.529 -7.125H94.9306C94.8556 -7.12529 94.7816 -7.10711 94.7153 -7.07205C94.6489 -7.03699 94.5922 -6.98614 94.5502 -6.92398C94.5081 -6.86182 94.482 -6.79027 94.4742 -6.71564C94.4663 -6.64101 94.477 -6.56559 94.5051 -6.49604Z" fill="#FABBA0"/>
</mask>
<g mask="url(#mask0)">
<path d="M82.8516 69.1553C82.8516 69.1553 163.963 35.3662 197.577 35.3662C231.192 35.3662 228.959 58.6005 228.959 58.6005L242.304 22.7925L231.837 0.142211C231.837 0.142211 134.561 -1.4751 132.298 -1.4751C130.036 -1.4751 87.0481 27.5493 87.0481 27.5493L82.8516 69.1553Z" fill="#F58D6E"/>
</g>
<path d="M72.1855 243.349L88.0812 131.239C88.0812 131.239 109.312 138.435 155.575 137.814C201.837 137.193 253.115 103.853 253.115 103.853C253.115 103.853 265.332 133.895 267.335 152.478C269.339 171.061 269.037 243.362 269.037 243.362L72.1855 243.349Z" fill="#333333"/>
<path d="M140.475 137.452L154.457 208.482H170.736L184.398 238.312" stroke="#1A1A1A" stroke-width="3" stroke-miterlimit="10"/>
<path d="M148.208 146.561C149.694 146.561 150.898 145.357 150.898 143.871C150.898 142.385 149.694 141.181 148.208 141.181C146.722 141.181 145.518 142.385 145.518 143.871C145.518 145.357 146.722 146.561 148.208 146.561Z" fill="#1A1A1A"/>
<path d="M82.3604 -41.3079L93.4067 61.1639C93.4067 61.1639 148.49 20.1499 196.159 20.1499C243.827 20.1499 228.066 61.1639 228.066 61.1639L267.949 -40.0711L114.049 -72.3433L82.3604 -41.3079Z" fill="#F2F2F2"/>
<path d="M152.216 98.5283C152.216 98.5283 152.07 102.545 155.575 102.545" stroke="#8C6239" stroke-width="7" stroke-linecap="round" stroke-linejoin="round"/>
<path d="M185.093 89.2768C191.791 89.2768 197.22 83.8473 197.22 77.1496C197.22 70.452 191.791 65.0225 185.093 65.0225C178.395 65.0225 172.966 70.452 172.966 77.1496C172.966 83.8473 178.395 89.2768 185.093 89.2768Z" fill="#CCCCCC"/>
<path d="M183.974 66.4834L181.181 67.1652L183.009 68.5975L183.974 66.4834Z" fill="#1B1464"/>
<path d="M185.092 85.2015C189.539 85.2015 193.144 81.5964 193.144 77.1494C193.144 72.7023 189.539 69.0972 185.092 69.0972C180.645 69.0972 177.04 72.7023 177.04 77.1494C177.04 81.5964 180.645 85.2015 185.092 85.2015Z" fill="#E6E6E6"/>
<path d="M186.824 71.5758L189.248 73.0478L188.97 70.7725L186.824 71.5758Z" fill="#1B1464"/>
<path d="M205.549 127.976C204.658 124.322 200.974 122.082 197.32 122.973C193.665 123.863 191.425 127.548 192.316 131.202L194.115 138.581C195.006 142.235 198.69 144.475 202.344 143.584C205.998 142.693 208.238 139.009 207.348 135.355L205.549 127.976Z" fill="black"/>
<path d="M191.196 67.5742L190.799 67.3325L189.518 69.4393L189.915 69.6809L191.196 67.5742Z" fill="#1B1464"/>
<path d="M187.903 185.43L173.805 127.574L186.503 124.479L187.399 128.153L207.401 123.28L206.96 121.464L214.903 119.53L228.547 175.525L187.903 185.43Z" fill="#E6E6E6"/>
<path d="M178.673 120.983L179.915 126.083" stroke="#F2F2F2" stroke-width="11" stroke-miterlimit="10"/>
<path d="M177.187 120.753L179.848 120.105" stroke="#F2F2F2" stroke-miterlimit="10"/>
<path d="M177.044 120.169L179.705 119.519" stroke="#F2F2F2" stroke-miterlimit="10"/>
<path d="M213.058 123.374L189.663 129.077C188.847 129.276 188.348 130.098 188.546 130.913L200.388 179.49C200.587 180.305 201.409 180.805 202.224 180.606L225.619 174.903C226.434 174.705 226.934 173.882 226.736 173.067L214.894 124.491C214.695 123.675 213.873 123.175 213.058 123.374Z" fill="#E6E6E6"/>
<path opacity="0.5" d="M189.272 143.322L181.164 145.299C180.59 145.439 180.238 146.018 180.378 146.592L189.166 182.645C189.306 183.219 189.885 183.571 190.459 183.431L198.568 181.454C199.142 181.314 199.494 180.735 199.354 180.161L190.565 144.109C190.425 143.534 189.846 143.182 189.272 143.322Z" fill="#999999"/>
<path opacity="0.5" d="M191.274 147.019L181.086 149.502L189.419 183.686L199.607 181.202L191.274 147.019Z" fill="#447AC7"/>
<path d="M214.817 162.779L206.625 129.099L188.232 133.591C185.344 134.297 183.372 137.074 183.84 140.008C184 141.042 184.444 142.013 185.122 142.81C185.801 143.608 186.687 144.202 187.683 144.526C187.933 144.606 188.159 144.747 188.34 144.938C188.52 145.129 188.649 145.363 188.713 145.618C188.778 145.876 188.777 146.146 188.709 146.403C188.641 146.66 188.509 146.895 188.325 147.087C187.645 147.774 187.152 148.624 186.892 149.555C186.633 150.486 186.615 151.468 186.842 152.408C187.068 153.348 187.531 154.214 188.187 154.925C188.842 155.636 189.668 156.167 190.587 156.469C190.841 156.549 191.071 156.693 191.253 156.887C191.435 157.082 191.565 157.32 191.628 157.579C191.692 157.838 191.687 158.109 191.616 158.366C191.544 158.623 191.407 158.857 191.218 159.045C190.486 159.793 189.975 160.729 189.742 161.75C189.508 162.77 189.562 163.836 189.897 164.827C190.14 165.555 190.531 166.225 191.044 166.795C191.558 167.365 192.184 167.822 192.883 168.139C193.167 168.268 193.39 168.501 193.508 168.79C193.626 169.079 193.629 169.401 193.518 169.693C192.833 171.482 191.861 173.07 192.812 176.968C193.964 181.703 199.154 181.341 204.215 180.105L218.205 176.696C222.188 175.726 219.743 161.804 219.743 161.804L214.817 162.779Z" fill="#E6E6E6"/>
<path d="M211.495 127.894L192.629 132.493L201.138 167.401L220.004 162.802L211.495 127.894Z" fill="#8FCF97"/>
<path d="M189.123 143.253C191.347 143.253 193.151 141.449 193.151 139.225C193.151 137.001 191.347 135.198 189.123 135.198C186.899 135.198 185.096 137.001 185.096 139.225C185.096 141.449 186.899 143.253 189.123 143.253Z" fill="#F2F2F2"/>
<path d="M192.027 155.171C194.252 155.171 196.055 153.368 196.055 151.144C196.055 148.919 194.252 147.116 192.027 147.116C189.803 147.116 188 148.919 188 151.144C188 153.368 189.803 155.171 192.027 155.171Z" fill="#F2F2F2"/>
<path d="M194.923 166.984C197.105 166.984 198.874 165.215 198.874 163.033C198.874 160.851 197.105 159.082 194.923 159.082C192.741 159.082 190.973 160.851 190.973 163.033C190.973 165.215 192.741 166.984 194.923 166.984Z" fill="#8B8BB5" stroke="white" stroke-width="2" stroke-miterlimit="10"/>
<path d="M208.502 167.713L210.592 176.294L219.004 169.698L208.502 167.713Z" fill="#F2F2F2"/>
<path d="M204.333 177.819L202.243 169.238L193.831 175.831L204.333 177.819Z" fill="#F2F2F2"/>
<path opacity="0.5" d="M218.054 161.476L216.859 156.574L214.957 157.038L216.152 161.939L218.054 161.476Z" fill="#1A1A1A"/>
<path opacity="0.5" d="M209.777 135.835L208.924 132.333L209.534 130.7L210.824 131.868L211.677 135.372L209.777 135.835Z" fill="#1A1A1A"/>
<path opacity="0.5" d="M211.189 138.472C211.729 138.472 212.167 138.034 212.167 137.494C212.167 136.954 211.729 136.516 211.189 136.516C210.649 136.516 210.211 136.954 210.211 137.494C210.211 138.034 210.649 138.472 211.189 138.472Z" fill="#1A1A1A"/>
<path opacity="0.5" d="M210.581 146.677L207.814 135.326L196.464 138.093L199.231 149.444L210.581 146.677Z" fill="#1A1A1A"/>
<path opacity="0.5" d="M214.41 162.377L214.064 160.959L202.714 163.726L203.059 165.144L214.41 162.377Z" fill="#1A1A1A"/>
<path opacity="0.8" d="M214.408 162.377L214.062 160.959L207.41 162.581L207.756 163.998L214.408 162.377Z" fill="#1A1A1A"/>
<path d="M188.846 76.957C189.735 75.4942 189.271 73.5876 187.809 72.6986C186.346 71.8096 184.44 72.2747 183.551 73.7375L181.368 77.3278C180.478 78.7907 180.943 80.6972 182.405 81.5863C183.867 82.4753 185.773 82.0102 186.663 80.5473L188.846 76.957Z" fill="#F2F2F2"/>
<path d="M178.372 119.844L177.646 116.898C177.367 115.766 177.519 114.572 178.072 113.546C178.625 112.521 179.539 111.737 180.637 111.348L195.436 106.105C196.601 105.693 197.556 104.838 198.095 103.726C198.634 102.614 198.712 101.334 198.314 100.164C197.917 98.9942 197.074 98.0277 195.969 97.4747C194.864 96.9216 193.585 96.8265 192.41 97.2099L174.046 103.251C172.818 103.655 171.479 103.558 170.322 102.98C169.164 102.401 168.283 101.39 167.868 100.164V100.164C167.471 98.991 167.554 97.7082 168.098 96.5955C168.643 95.4828 169.605 94.6303 170.775 94.2237L175.64 92.5218C176.774 92.1257 177.713 91.3106 178.264 90.2438L182.574 81.9062" stroke="#F2F2F2" stroke-width="2" stroke-miterlimit="10"/>
<path d="M83.2311 -67.114C83.2311 -67.114 58.2315 78.2323 74.5103 84.6382C90.7891 91.044 174.783 7.99306 196.157 7.94022L202.796 -13.7693L102.678 25.6989L103.582 -68.2715L83.2311 -67.114Z" fill="#FABBA0"/>
<mask id="mask1" mask-type="alpha" maskUnits="userSpaceOnUse" x="69" y="-69" width="134" height="154">
<path d="M83.2311 -67.114C83.2311 -67.114 58.2316 78.2323 74.5103 84.6382C90.7891 91.044 174.783 7.99306 196.157 7.94022L202.796 -13.7693L102.678 25.6989L103.582 -68.2715L83.2311 -67.114Z" fill="#FABBA0"/>
</mask>
<g mask="url(#mask1)">
<path d="M66.3701 86.6734C66.3701 86.6734 64.626 73.2989 77.4164 73.2989C90.2069 73.2989 197.774 -4.60938 197.774 -4.60938C197.774 -4.60938 203.588 12.8322 203.588 13.7043C203.588 14.5763 77.1258 107.022 77.1258 107.022L66.3701 86.6734Z" fill="#F58D6E"/>
</g>
<path d="M192.846 -2.13313C192.591 -3.6917 192.693 -5.28777 193.143 -6.80144C193.594 -8.31511 194.381 -9.70702 195.447 -10.8726C196.513 -12.0382 197.828 -12.9471 199.296 -13.5311C200.763 -14.1151 202.344 -14.359 203.919 -14.2444C217.209 -13.2719 235.829 -10.0135 235.829 0.620522C235.829 3.70186 241.18 9.69542 238.036 13.4136C234.838 17.1926 237.163 19.6635 236.001 23.1518C234.838 26.6402 231.64 25.7681 232.948 30.5513C234.497 36.2304 227.135 37.3429 224.344 34.1453C219.891 29.0582 207.36 18.8179 200.068 13.004C196.555 10.1998 194.208 6.19072 193.483 1.75422L192.846 -2.13313Z" fill="#FABBA0"/>
<path d="M237.164 -63.6967L273.794 77.0065L239.49 163.057L250.713 173.342C250.713 173.342 305.189 97.9363 306.933 79.9134C308.677 61.8905 279.468 -83.7598 279.468 -83.7598L237.164 -63.6967Z" fill="#FABBA0"/>
<path d="M229.921 154.849L257.457 179.7" stroke="#1A1A1A" stroke-width="3" stroke-miterlimit="10"/>
</g>
<defs>
<clipPath id="clip0">
<rect width="375" height="227" fill="white"/>
</clipPath>
</defs>
</svg>
