<svg width="368" height="378" viewBox="0 0 368 378" fill="none" xmlns="http://www.w3.org/2000/svg">
<path d="M183.953 377.464C285.547 377.464 367.905 295.106 367.905 193.512C367.905 91.9175 285.547 9.55908 183.953 9.55908C82.3584 9.55908 0 91.9175 0 193.512C0 295.106 82.3584 377.464 183.953 377.464Z" fill="#8FCF97"/>
<path d="M289.741 96.3023C311.057 96.3023 328.336 79.0229 328.336 57.7078C328.336 36.3926 311.057 19.1133 289.741 19.1133C268.426 19.1133 251.147 36.3926 251.147 57.7078C251.147 79.0229 268.426 96.3023 289.741 96.3023Z" fill="#CCCCCC"/>
<path d="M297.052 24.3707L287.936 23.6265L292.022 29.7901L297.052 24.3707Z" fill="#1B1464"/>
<path d="M289.741 83.3339C303.894 83.3339 315.367 71.8606 315.367 57.7076C315.367 43.5546 303.894 32.0813 289.741 32.0813C275.588 32.0813 264.115 43.5546 264.115 57.7076C264.115 71.8606 275.588 83.3339 289.741 83.3339Z" fill="#E6E6E6"/>
<path d="M300.556 42.6101L306.393 49.4835L307.843 42.3379L300.556 42.6101Z" fill="#1B1464"/>
<path d="M317.718 34.9219L316.759 33.7925L310.779 38.8697L311.738 39.9991L317.718 34.9219Z" fill="#1B1464"/>
<path d="M137.324 346.326L52.1313 177.029L89.2823 158.332L94.6914 169.084L153.221 139.63L150.55 134.325L173.796 122.628L256.25 286.477L137.324 346.326Z" fill="#E6E6E6"/>
<path d="M62.4946 153.109L70.0054 168.034" stroke="#447AC7" stroke-width="25" stroke-miterlimit="10"/>
<path d="M57.7192 153.463L65.5022 149.546" stroke="#447AC7" stroke-width="4" stroke-miterlimit="10"/>
<path d="M56.7031 151.441L64.4861 147.524" stroke="#447AC7" stroke-width="4" stroke-miterlimit="10"/>
<path d="M170.802 135.951L102.354 170.392C99.9663 171.594 99.0044 174.504 100.206 176.892L171.727 319.035C172.929 321.423 175.839 322.385 178.227 321.183L246.675 286.742C249.063 285.541 250.025 282.631 248.823 280.242L177.302 138.1C176.1 135.712 173.19 134.75 170.802 135.951Z" fill="#E6E6E6"/>
<path opacity="0.5" d="M111.346 214.85L87.6135 226.791C85.9341 227.636 85.2578 229.682 86.1028 231.362L139.188 336.864C140.033 338.544 142.08 339.22 143.759 338.375L167.491 326.434C169.17 325.589 169.847 323.543 169.002 321.863L115.916 216.36C115.071 214.681 113.025 214.005 111.346 214.85Z" fill="#999999"/>
<path opacity="0.5" d="M120.201 224.876L90.3877 239.877L140.718 339.905L170.532 324.904L120.201 224.876Z" fill="#447AC7"/>
<path d="M204.535 256.799L154.943 158.239L101.124 185.319C92.6794 189.591 88.545 199.607 92.104 208.375C93.3446 211.468 95.4179 214.157 98.0938 216.143C100.77 218.129 103.944 219.336 107.263 219.628C108.097 219.693 108.9 219.97 109.596 220.433C110.292 220.896 110.857 221.53 111.239 222.274C111.625 223.024 111.814 223.861 111.787 224.705C111.76 225.549 111.52 226.372 111.088 227.097C109.472 229.715 108.552 232.703 108.415 235.776C108.278 238.85 108.929 241.907 110.306 244.658C111.683 247.41 113.74 249.763 116.282 251.496C118.824 253.229 121.767 254.284 124.831 254.56C125.491 254.616 126.134 254.802 126.722 255.108C127.309 255.413 127.831 255.833 128.256 256.341C128.912 257.14 129.302 258.125 129.37 259.156C129.439 260.188 129.183 261.216 128.638 262.095C126.894 264.936 125.971 268.204 125.971 271.538C125.971 274.872 126.894 278.141 128.638 280.982C129.925 283.069 131.63 284.866 133.646 286.26C135.662 287.654 137.946 288.615 140.352 289.082C141.325 289.281 142.184 289.843 142.756 290.654C143.328 291.466 143.568 292.464 143.429 293.447C142.595 299.483 140.714 305.103 146.457 316.531C153.427 330.384 169.231 325.547 184.067 318.085L225.004 297.482C236.659 291.624 219.095 250.201 219.095 250.201L204.535 256.799Z" fill="#E6E6E6"/>
<path d="M169.208 151.079L114.001 178.857L165.399 281.005L220.606 253.227L169.208 151.079Z" fill="#8FCF97"/>
<path d="M107.976 215.004C115.057 215.004 120.796 209.264 120.796 202.184C120.796 195.103 115.057 189.364 107.976 189.364C100.896 189.364 95.1562 195.103 95.1562 202.184C95.1562 209.264 100.896 215.004 107.976 215.004Z" fill="#F2F2F2"/>
<path d="M125.524 249.877C132.604 249.877 138.344 244.138 138.344 237.057C138.344 229.977 132.604 224.237 125.524 224.237C118.443 224.237 112.704 229.977 112.704 237.057C112.704 244.138 118.443 249.877 125.524 249.877Z" fill="#F2F2F2"/>
<path d="M143.029 284.42C149.976 284.42 155.608 278.788 155.608 271.841C155.608 264.894 149.976 259.262 143.029 259.262C136.082 259.262 130.45 264.894 130.45 271.841C130.45 278.788 136.082 284.42 143.029 284.42Z" fill="#447AC7" stroke="white" stroke-width="2" stroke-miterlimit="10"/>
<path d="M188.483 276.627L201.117 301.729L222.471 275.252L188.483 276.627Z" fill="#F2F2F2"/>
<path d="M182.809 310.942L170.175 285.84L148.821 312.317L182.809 310.942Z" fill="#F2F2F2"/>
<path opacity="0.5" d="M213.564 250.414L206.346 236.069L200.781 238.869L207.999 253.214L213.564 250.414Z" fill="#1A1A1A"/>
<path opacity="0.5" d="M169.589 176.864L164.432 166.614L165.152 161.119L169.996 163.813L175.153 174.063L169.589 176.864Z" fill="#1A1A1A"/>
<path opacity="0.5" d="M175.157 184.113C176.877 184.113 178.272 182.718 178.272 180.998C178.272 179.278 176.877 177.884 175.157 177.884C173.437 177.884 172.042 179.278 172.042 180.998C172.042 182.718 173.437 184.113 175.157 184.113Z" fill="#1A1A1A"/>
<path opacity="0.5" d="M179.782 209.872L163.068 176.655L129.851 193.368L146.565 226.586L179.782 209.872Z" fill="#1A1A1A"/>
<path opacity="0.5" d="M202.903 255.811L200.815 251.662L167.598 268.376L169.685 272.524L202.903 255.811Z" fill="#1A1A1A"/>
<path opacity="0.8" d="M202.899 255.811L200.812 251.662L181.345 261.457L183.433 265.605L202.899 255.811Z" fill="#1A1A1A"/>
<path d="M301.215 60.904C305.368 57.3783 305.876 51.1535 302.351 47.0005C298.825 42.8476 292.6 42.3391 288.447 45.8648L278.251 54.5208C274.098 58.0465 273.59 64.2713 277.115 68.4242C280.641 72.5772 286.866 73.0857 291.019 69.56L301.215 60.904Z" fill="#F2F2F2"/>
<path d="M264.635 119.996C262.82 114.263 259.03 109.439 258.341 103.238C256.963 89.1119 264.887 74.986 277.125 68.4124" stroke="#E6E6E6" stroke-width="31" stroke-linecap="round" stroke-linejoin="round"/>
<path d="M250.168 208.857C254.82 218.177 264.467 223.672 274.892 222.294C285.121 220.95 293.814 212.747 294.875 202.332C295.178 199.348 295.247 195.989 294.558 193.057C293.869 190.125 292.305 187.544 291.388 184.709" stroke="#E6E6E6" stroke-width="13" stroke-linecap="round" stroke-linejoin="round"/>
<path d="M171.036 38.9065C175.581 49.8075 181.245 60.1883 186.392 70.8102C187.849 73.8248 189.269 76.8602 190.612 79.93" stroke="#E6E6E6" stroke-width="13" stroke-linecap="round" stroke-linejoin="round"/>
<path d="M40.5204 105.181C25.0923 72.9186 38.8736 29.8521 70.6257 12.7805" stroke="#E6E6E6" stroke-width="13" stroke-linecap="round" stroke-linejoin="round"/>
<path d="M63.0496 154.373L40.9996 106.28C24.0658 69.2874 40.5241 25.5938 77.6544 8.94948C114.189 -7.41236 157.107 8.59116 173.989 44.8876L250.268 208.782C251.58 211.599 253.439 214.128 255.737 216.22C258.036 218.312 260.727 219.926 263.655 220.968C266.584 222.01 269.69 222.459 272.793 222.288C275.896 222.118 278.935 221.332 281.731 219.976C287.096 217.374 291.266 212.826 293.394 207.257C295.522 201.688 295.447 195.517 293.183 190.001L261.125 111.941C258.272 104.996 257.818 97.2986 259.835 90.0673C261.852 82.836 266.225 76.4846 272.26 72.0196L277.125 68.4192" stroke="#447AC7" stroke-width="5" stroke-miterlimit="10"/>
<path d="M332.408 243.603C331.878 244.151 331.152 244.467 330.39 244.482C329.628 244.497 328.89 244.209 328.339 243.683L327.502 242.88C327.228 242.617 327.009 242.302 326.857 241.954C326.705 241.605 326.623 241.231 326.616 240.851C326.609 240.471 326.677 240.094 326.816 239.74C326.955 239.386 327.162 239.064 327.426 238.79C327.454 238.761 327.475 238.726 327.489 238.688C327.503 238.649 327.508 238.609 327.505 238.568C327.502 238.528 327.491 238.488 327.472 238.452C327.453 238.416 327.427 238.385 327.395 238.36C325.058 236.584 322.151 235.727 319.224 235.953C316.298 236.178 313.556 237.47 311.519 239.583L300.05 251.497C298.959 252.629 298.102 253.966 297.528 255.43C296.953 256.893 296.673 258.456 296.703 260.028C296.733 261.6 297.072 263.151 297.701 264.592C298.33 266.033 299.237 267.336 300.37 268.427L303.832 271.762C304.965 272.853 306.301 273.71 307.765 274.284C309.229 274.858 310.792 275.139 312.364 275.109C313.936 275.079 315.487 274.74 316.928 274.111C318.369 273.481 319.672 272.575 320.763 271.442L332.236 259.531C334.271 257.416 335.459 254.627 335.573 251.695C335.688 248.762 334.723 245.889 332.859 243.621C332.832 243.59 332.798 243.566 332.761 243.55C332.724 243.533 332.683 243.524 332.642 243.524C332.601 243.524 332.561 243.533 332.524 243.55C332.486 243.566 332.453 243.59 332.425 243.621L332.408 243.603Z" fill="#447AC7"/>
<path d="M332.55 243.524C330.737 244.844 328.839 244.406 327.633 243.128C326.255 241.557 326.868 239.948 327.289 238.05C321.959 234.067 314.069 235.745 310.362 240.751" stroke="#F2F2F2" stroke-width="4" stroke-linecap="round" stroke-linejoin="round"/>
<path d="M300.649 250.852C297.976 253.526 296.329 257.398 296.694 261.233C297.383 266.894 301.952 270.949 306.551 273.76C308.339 274.673 309.948 275.297 311.957 275.259C314.913 275.445 317.435 274.277 319.588 272.523C324.119 268.069 328.546 264.089 332.336 259.4" stroke="#F2F2F2" stroke-width="4" stroke-linecap="round" stroke-linejoin="round"/>
<path d="M325.087 272.124L299.991 246.06C295.826 241.736 285.521 247.235 283.15 255.042L281.569 260.265C274.83 282.511 287.715 295.89 310.199 289.995L315.474 288.617C323.368 286.542 329.252 276.448 325.087 272.124Z" fill="#F2F2F2"/>
<path d="M302.627 248.799L305.456 245.86L325.928 266.356L322.627 269.571C322.627 269.571 311.457 273.016 311.326 272.461C311.195 271.907 302.627 248.799 302.627 248.799Z" fill="#F2F2F2" stroke="#F2F2F2" stroke-width="4" stroke-linecap="round" stroke-linejoin="round"/>
<path d="M329.104 241.967L337.648 232.813" stroke="#E6E6E6" stroke-width="4" stroke-miterlimit="10"/>
<g filter="url(#filter0_d)">
<circle cx="38.5" cy="178.5" r="19.5" fill="#F7A800"/>
</g>
<path d="M41.2168 170.2V187H37.3288V173.32H33.9688V170.2H41.2168Z" fill="white"/>
<g filter="url(#filter1_d)">
<circle cx="75.5" cy="294.5" r="19.5" fill="#F7A800"/>
</g>
<path d="M81.9099 299.832V303H69.2139V300.48L75.6939 294.36C76.3819 293.704 76.8459 293.144 77.0859 292.68C77.3259 292.2 77.4459 291.728 77.4459 291.264C77.4459 290.592 77.2139 290.08 76.7499 289.728C76.3019 289.36 75.6379 289.176 74.7579 289.176C74.0219 289.176 73.3579 289.32 72.7659 289.608C72.1739 289.88 71.6779 290.296 71.2779 290.856L68.4459 289.032C69.1019 288.056 70.0059 287.296 71.1579 286.752C72.3099 286.192 73.6299 285.912 75.1179 285.912C76.3659 285.912 77.4539 286.12 78.3819 286.536C79.3259 286.936 80.0539 287.512 80.5659 288.264C81.0939 289 81.3579 289.872 81.3579 290.88C81.3579 291.792 81.1659 292.648 80.7819 293.448C80.3979 294.248 79.6539 295.16 78.5499 296.184L74.6859 299.832H81.9099Z" fill="white"/>
<g filter="url(#filter2_d)">
<circle cx="323.5" cy="288.5" r="19.5" fill="#F7A800"/>
</g>
<path d="M331.547 293.472H328.811V297H325.019V293.472H315.971V290.856L323.891 280.2H327.971L320.627 290.304H325.139V287.16H328.811V290.304H331.547V293.472Z" fill="white"/>
<g filter="url(#filter3_d)">
<circle cx="320.5" cy="87.5" r="19.5" fill="#F7A800"/>
</g>
<path d="M322.182 86.04C323.654 86.28 324.782 86.832 325.566 87.696C326.35 88.544 326.742 89.6 326.742 90.864C326.742 91.84 326.486 92.744 325.974 93.576C325.462 94.392 324.678 95.048 323.622 95.544C322.582 96.04 321.302 96.288 319.782 96.288C318.598 96.288 317.43 96.136 316.278 95.832C315.142 95.512 314.174 95.064 313.374 94.488L314.886 91.512C315.526 91.992 316.262 92.368 317.094 92.64C317.942 92.896 318.806 93.024 319.686 93.024C320.662 93.024 321.43 92.84 321.99 92.472C322.55 92.088 322.83 91.552 322.83 90.864C322.83 89.488 321.782 88.8 319.686 88.8H317.91V86.232L321.366 82.32H314.214V79.2H325.974V81.72L322.182 86.04Z" fill="white"/>
<defs>
<filter id="filter0_d" x="5" y="149" width="67" height="67" filterUnits="userSpaceOnUse" color-interpolation-filters="sRGB">
<feFlood flood-opacity="0" result="BackgroundImageFix"/>
<feColorMatrix in="SourceAlpha" type="matrix" values="0 0 0 0 0 0 0 0 0 0 0 0 0 0 0 0 0 0 127 0"/>
<feOffset dy="4"/>
<feGaussianBlur stdDeviation="7"/>
<feColorMatrix type="matrix" values="0 0 0 0 0 0 0 0 0 0 0 0 0 0 0 0 0 0 0.15 0"/>
<feBlend mode="normal" in2="BackgroundImageFix" result="effect1_dropShadow"/>
<feBlend mode="normal" in="SourceGraphic" in2="effect1_dropShadow" result="shape"/>
</filter>
<filter id="filter1_d" x="42" y="265" width="67" height="67" filterUnits="userSpaceOnUse" color-interpolation-filters="sRGB">
<feFlood flood-opacity="0" result="BackgroundImageFix"/>
<feColorMatrix in="SourceAlpha" type="matrix" values="0 0 0 0 0 0 0 0 0 0 0 0 0 0 0 0 0 0 127 0"/>
<feOffset dy="4"/>
<feGaussianBlur stdDeviation="7"/>
<feColorMatrix type="matrix" values="0 0 0 0 0 0 0 0 0 0 0 0 0 0 0 0 0 0 0.15 0"/>
<feBlend mode="normal" in2="BackgroundImageFix" result="effect1_dropShadow"/>
<feBlend mode="normal" in="SourceGraphic" in2="effect1_dropShadow" result="shape"/>
</filter>
<filter id="filter2_d" x="290" y="259" width="67" height="67" filterUnits="userSpaceOnUse" color-interpolation-filters="sRGB">
<feFlood flood-opacity="0" result="BackgroundImageFix"/>
<feColorMatrix in="SourceAlpha" type="matrix" values="0 0 0 0 0 0 0 0 0 0 0 0 0 0 0 0 0 0 127 0"/>
<feOffset dy="4"/>
<feGaussianBlur stdDeviation="7"/>
<feColorMatrix type="matrix" values="0 0 0 0 0 0 0 0 0 0 0 0 0 0 0 0 0 0 0.15 0"/>
<feBlend mode="normal" in2="BackgroundImageFix" result="effect1_dropShadow"/>
<feBlend mode="normal" in="SourceGraphic" in2="effect1_dropShadow" result="shape"/>
</filter>
<filter id="filter3_d" x="287" y="58" width="67" height="67" filterUnits="userSpaceOnUse" color-interpolation-filters="sRGB">
<feFlood flood-opacity="0" result="BackgroundImageFix"/>
<feColorMatrix in="SourceAlpha" type="matrix" values="0 0 0 0 0 0 0 0 0 0 0 0 0 0 0 0 0 0 127 0"/>
<feOffset dy="4"/>
<feGaussianBlur stdDeviation="7"/>
<feColorMatrix type="matrix" values="0 0 0 0 0 0 0 0 0 0 0 0 0 0 0 0 0 0 0.15 0"/>
<feBlend mode="normal" in2="BackgroundImageFix" result="effect1_dropShadow"/>
<feBlend mode="normal" in="SourceGraphic" in2="effect1_dropShadow" result="shape"/>
</filter>
</defs>
</svg>
